STARTFONT 2.3
FONT -FontForge-Zen Tokyo Zoo-Book-R-Normal--28-280-72-72-P-131-ISO10646-1
SIZE 28 72 72  4
FONTBOUNDINGBOX 37 38 -3 -7
COMMENT "Generated by fontforge, http://fontforge.sourceforge.net"
COMMENT "Copyright 2021 The Zen Tokyo Zoo Project Authors (https://github.com/googlefonts/zen-tokyo-zoo)"
STARTPROPERTIES 40
FOUNDRY "FontForge"
FAMILY_NAME "Zen Tokyo Zoo"
WEIGHT_NAME "Book"
SLANT "R"
SETWIDTH_NAME "Normal"
ADD_STYLE_NAME ""
PIXEL_SIZE 28
POINT_SIZE 280
RESOLUTION_X 72
RESOLUTION_Y 72
SPACING "P"
AVERAGE_WIDTH 131
CHARSET_REGISTRY "ISO10646"
CHARSET_ENCODING "1"
FONTNAME_REGISTRY ""
CHARSET_COLLECTIONS "ISO10646-1"
BITS_PER_PIXEL 4
FONT_NAME "ZenTokyoZoo-Regular"
FACE_NAME "Zen Tokyo Zoo Regular"
COPYRIGHT "Copyright 2021 The Zen Tokyo Zoo Project Authors (https://github.com/googlefonts/zen-tokyo-zoo)"
FONT_VERSION "1.002; ttfautohint (v1.8.3)"
FONT_ASCENT 22
FONT_DESCENT 6
UNDERLINE_POSITION -4
UNDERLINE_THICKNESS 1
X_HEIGHT 11
CAP_HEIGHT 22
RAW_ASCENT 800
RAW_DESCENT 200
NORM_SPACE 8
RELATIVE_WEIGHT 40
RELATIVE_SETWIDTH 50
SUPERSCRIPT_X 0
SUPERSCRIPT_Y 9
SUPERSCRIPT_SIZE 16
SUBSCRIPT_X 0
SUBSCRIPT_Y 2
SUBSCRIPT_SIZE 16
AVG_LOWERCASE_WIDTH 116
AVG_UPPERCASE_WIDTH 211
ENDPROPERTIES
CHARS 338
STARTCHAR CR
ENCODING 13
SWIDTH 600 0
DWIDTH 17 0
BBX 1 1 0 0
BITMAP
00
ENDCHAR
STARTCHAR space
ENCODING 32
SWIDTH 280 0
DWIDTH 8 0
BBX 1 1 0 0
BITMAP
00
ENDCHAR
STARTCHAR exclam
ENCODING 33
SWIDTH 196 0
DWIDTH 5 0
BBX 4 12 1 0
BITMAP
94B1
94B1
94B1
94B1
94B1
94B1
94B1
94B1
94B1
1120
94B1
94B1
ENDCHAR
STARTCHAR quotedbl
ENCODING 34
SWIDTH 302 0
DWIDTH 8 0
BBX 8 4 0 8
BITMAP
48760D1B
48760D1B
48760D1B
48760D1B
ENDCHAR
STARTCHAR numbersign
ENCODING 35
SWIDTH 513 0
DWIDTH 14 0
BBX 12 12 1 0
BITMAP
000B2C029470
000C0C000000
0A4C2A7DDDDD
002A58000000
0A5876BDDDDD
0000000D1C00
8DDDDD3C3A92
0000003A5800
8DDDDC5876D2
000000769300
02B48093B100
049660B1D000
ENDCHAR
STARTCHAR dollar
ENCODING 36
SWIDTH 379 0
DWIDTH 11 0
BBX 10 15 0 -1
BITMAP
0000160000
00011B0000
007C1B3C40
08911B02C2
0D1B1B4758
1C3B160200
0C27DA6100
03C6138C60
0018DB51B4
000003A93A
04261B1D2B
0D171B3567
05C41B17C1
00381B3710
00001B0000
ENDCHAR
STARTCHAR percent
ENCODING 37
SWIDTH 493 0
DWIDTH 14 0
BBX 14 12 0 0
BITMAP
02BDC3001C2C00
0C7D7D10A4A300
39869944959000
3A3D495C2C1000
0C504C95940000
02ADB6A4A00000
00000C2C5CD910
00008687C207A0
0003B3A768D3C0
000B2B2768D3C1
00777602C206A0
02B2B0004CDA10
ENDCHAR
STARTCHAR ampersand
ENCODING 38
SWIDTH 487 0
DWIDTH 14 0
BBX 12 12 1 0
BITMAP
0004CDD80000
003C8DA98000
0094D1B3D000
00A3C291D000
00765A069000
002C0A651000
087781D24A3B
4C13B45B11B5
86972C2A6280
675D94B1D200
2D3003884C00
03BDD90C4970
ENDCHAR
STARTCHAR quotesingle
ENCODING 39
SWIDTH 146 0
DWIDTH 4 0
BBX 4 4 0 8
BITMAP
4876
4876
4876
4876
ENDCHAR
STARTCHAR parenleft
ENCODING 40
SWIDTH 210 0
DWIDTH 6 0
BBX 6 14 0 -1
BITMAP
004261
00C2C0
058760
094B10
0C1C00
0C3A00
2B4900
2B4800
1C3900
0D1B00
0B1D00
076940
02B490
00B3C1
ENDCHAR
STARTCHAR parenright
ENCODING 41
SWIDTH 210 0
DWIDTH 6 0
BBX 5 14 0 -1
BITMAP
253300
0C2C00
085A30
03A570
00C2B0
00C1D0
00A2D0
00A2C0
00B2D0
00C1C0
01C3A0
067850
0B3C10
2B5900
ENDCHAR
STARTCHAR asterisk
ENCODING 42
SWIDTH 358 0
DWIDTH 10 0
BBX 8 7 1 5
BITMAP
00099000
14099041
16700661
5A3002A5
00500400
06676480
02832920
ENDCHAR
STARTCHAR plus
ENCODING 43
SWIDTH 394 0
DWIDTH 11 0
BBX 9 9 1 2
BITMAP
000C0D0000
000C0D0000
000C0D0000
CD2C0D2DC0
000C0D0000
CD2C0D2DC0
000C0D0000
000C0D0000
000C0D0000
ENDCHAR
STARTCHAR comma
ENCODING 44
SWIDTH 216 0
DWIDTH 6 0
BBX 4 4 1 -1
BITMAP
0706
2B3A
7685
B2C1
ENDCHAR
STARTCHAR hyphen
ENCODING 45
SWIDTH 326 0
DWIDTH 9 0
BBX 7 3 1 4
BITMAP
8DDDDDA0
00000000
8DDDDDA0
ENDCHAR
STARTCHAR period
ENCODING 46
SWIDTH 176 0
DWIDTH 5 0
BBX 3 3 1 0
BITMAP
2020
C0C0
C0C0
ENDCHAR
STARTCHAR slash
ENCODING 47
SWIDTH 298 0
DWIDTH 8 0
BBX 8 12 0 0
BITMAP
00008685
0000C1D1
0002B3B0
00077860
000C2C10
002C2B00
00677700
00B2C200
01C1C000
05867000
0A3B3000
1D1D0000
ENDCHAR
STARTCHAR zero
ENCODING 48
SWIDTH 306 0
DWIDTH 9 0
BBX 8 12 0 0
BITMAP
008DDC40
099BD8C2
0D4A1C49
2B580C2B
2A580C2B
2A580C2B
2A580C2B
2A580C2B
2B491C2B
0D1BD549
098002C2
008DDC40
ENDCHAR
STARTCHAR one
ENCODING 49
SWIDTH 306 0
DWIDTH 9 0
BBX 7 12 1 0
BITMAP
8D685A30
00085A30
8D685A30
00085A30
00085A30
00085A30
00085A30
00085A30
00085A30
00085A30
00085A30
00085A30
ENDCHAR
STARTCHAR two
ENCODING 50
SWIDTH 299 0
DWIDTH 8 0
BBX 8 12 0 0
BITMAP
007DDB30
069003D2
0C1AD576
08174967
0002C2B2
001C3880
00B56B00
0A64C100
01000000
2DDDDDD5
00000000
2DDDDDD5
ENDCHAR
STARTCHAR three
ENCODING 51
SWIDTH 324 0
DWIDTH 9 0
BBX 9 12 0 0
BITMAP
006CCC8100
0991007B00
1D08DA0B20
1304061920
00006C7000
000002B700
0000001D00
0000690A20
16070C1A20
1D18D91D00
08A101A700
006CDD7000
ENDCHAR
STARTCHAR four
ENCODING 52
SWIDTH 339 0
DWIDTH 9 0
BBX 9 12 0 0
BITMAP
0001D1B300
000774A000
001D1B3000
00773B0000
01D1B40000
0783B00000
000003A3A0
2DDD83A3A0
000003A3A0
2DDD83A3A0
000003A3A0
000003A3A0
ENDCHAR
STARTCHAR five
ENCODING 53
SWIDTH 363 0
DWIDTH 10 0
BBX 8 12 1 0
BITMAP
0BDDDDD7
00000000
0BDDDDD7
00000000
0D0C0000
0D0C1610
0D0C18C1
0D0C1368
14141D2B
0D1BD749
089002C3
007DDC40
ENDCHAR
STARTCHAR six
ENCODING 54
SWIDTH 306 0
DWIDTH 9 0
BBX 8 12 0 0
BITMAP
008DDC50
099BD6B5
0D4A2A28
2B580000
2A580000
2A588B30
2A5803D2
2A588858
2B4A1C2A
0D1BD658
098003C2
008DDC40
ENDCHAR
STARTCHAR seven
ENCODING 55
SWIDTH 298 0
DWIDTH 8 0
BBX 7 12 1 0
BITMAP
DDDDDD70
00000000
DDDDDD70
00000000
000B2D10
001C2B00
00496700
0085A300
00C1D000
01C3B000
05877000
094A3000
ENDCHAR
STARTCHAR eight
ENCODING 56
SWIDTH 306 0
DWIDTH 9 0
BBX 8 12 0 0
BITMAP
008DDC40
098BD7C4
0D4A1C39
2B2C163A
0D16D255
07A05D30
046C33D2
1D12B559
2B491C2A
0D1BD658
089103D2
008DEC40
ENDCHAR
STARTCHAR nine
ENCODING 57
SWIDTH 306 0
DWIDTH 9 0
BBX 8 12 0 0
BITMAP
008DDC30
089AD7C2
0D4A1C49
2B3C1C2B
0D082C2B
08910C2B
007D3C2B
00000C2B
16251C2B
0D1BD548
089002C2
008DDC30
ENDCHAR
STARTCHAR colon
ENCODING 58
SWIDTH 176 0
DWIDTH 5 0
BBX 3 7 1 0
BITMAP
C0C0
C0C0
2020
0000
2020
C0C0
C0C0
ENDCHAR
STARTCHAR semicolon
ENCODING 59
SWIDTH 217 0
DWIDTH 6 0
BBX 4 9 1 -2
BITMAP
0202
0B2D
0B2D
0000
0000
0C1B
4967
94A3
6060
ENDCHAR
STARTCHAR less
ENCODING 60
SWIDTH 450 0
DWIDTH 13 0
BBX 11 13 1 -1
BITMAP
000000000130
000000006D40
0000004C9120
00002AB34C50
0000952AB200
008C31A50000
6B33B9100000
03C915D70000
0006D718C500
000018C42A60
0000002AB210
000000004C50
000000000020
ENDCHAR
STARTCHAR equal
ENCODING 61
SWIDTH 344 0
DWIDTH 10 0
BBX 8 8 1 1
BITMAP
CDDDDDD7
00000000
CDDDDDD7
00000000
00000000
CDDDDDD7
00000000
CDDDDDD7
ENDCHAR
STARTCHAR greater
ENCODING 62
SWIDTH 450 0
DWIDTH 13 0
BBX 11 12 1 0
BITMAP
810000000000
5D7000000000
518C50000000
7C42AB300000
02AA24C91000
0004C816D600
000117D61720
006D61183000
3C916D500000
A33C91000000
2AB300000000
B50000000000
ENDCHAR
STARTCHAR question
ENCODING 63
SWIDTH 346 0
DWIDTH 10 0
BBX 8 12 1 0
BITMAP
03BED910
1C4007A0
674DC1B2
53628694
0000B3A2
000B64C0
004A3C20
00769400
0085A300
00112000
00648200
0085A300
ENDCHAR
STARTCHAR at
ENCODING 64
SWIDTH 490 0
DWIDTH 14 0
BBX 13 12 0 0
BITMAP
00018CDDC71000
004CABDDB9C300
02B8B3003B6B10
095A19DB78A570
0A92AADA8846A0
18A19B048828A0
18A19A038947A0
0A82AAD8BCC960
095A19D96CD800
02C7A200840000
004C9ABB830000
00018CDCB50000
ENDCHAR
STARTCHAR A
ENCODING 65
SWIDTH 798 0
DWIDTH 22 0
BBX 22 23 0 0
BITMAP
0000000076868500000000
00000000C1D1D220000000
00000003A4A4A570000000
00000008595941C0000000
0000000D1D1D34B3000000
0000004A59594958000000
00000094A4A31D1D000000
000000D1D1D4685A400000
000005958682C3A4900000
00000A3B3B20C2C1D00000
00001C1C2C006776950000
0000686777001C2B3A0000
0000B2C2C2000B3C2C1000
0001C2C2B0000687786000
000677686ADDD3D1C2B000
000C2C1C100000A3B3C200
002B3B3A6DDDDB59686700
007686950000000D1D1C00
00C1D1D2DDDDDD794A3B30
03A4A49000000004959580
08595A4000000000D1D1D0
0D1D1D00000000008594A4
49595800000000003A4A49
ENDCHAR
STARTCHAR B
ENCODING 66
SWIDTH 784 0
DWIDTH 22 0
BBX 21 23 1 0
BITMAP
94B1D1DDDDDDDDA5000000
94B1D1DDDDDDDCBAB10000
94B1D0000000017C7B0000
94B1D1DDDDDDDB35996000
94B1D000000003D1C3C000
94B1D0000000008593D000
94B1D0000000008593C100
94B1D000000003D1C1D000
94B1D1DDDDDDDB35A2C000
94B1D0000000017C195000
94B1D1DDDDDDDC817B1000
94B1D0000000014BA1A300
94B1D1DDDDDDDCA4155900
94B1D000000000071D0C00
94B1D0000000000A4B2C00
94B1D000000000075A3C10
94B1D0000000000A3B2C00
94B1D0000000016C1D1C00
94B1D2DDDDDDDC91966700
94B1D0000000003A91D200
94B1D2DDDDDDDDA51C5000
94B1D00000000027D50000
94B1D2DDDDDDDDC7100000
ENDCHAR
STARTCHAR C
ENCODING 67
SWIDTH 776 0
DWIDTH 22 0
BBX 21 23 0 0
BITMAP
0000000159CDDDDA720000
0000007DBBCDDDBA9CB400
00002CABC6200027C94C80
0002D7D516BDDDB616C220
001C6D34D9310038D54300
0087C46C200000001A1000
01D593C100000000000000
076B2B4000000000000000
0B2C1C0000000000000000
0D3A480000000000000000
1C48660000000000000000
2B48660000000000000000
1C3A480000000000000000
0D1C1C0000000000000000
0B2B2A4000000000000000
076593C100000000000000
01D0C46C200000001A1000
00872D34D8310038D44300
001C43D517BDDDB616C210
0002D419B6200027C91990
00002C8127BDDDB722B900
0000007D84100015AC4000
0000000159CDDDC9400000
ENDCHAR
STARTCHAR D
ENCODING 68
SWIDTH 806 0
DWIDTH 23 0
BBX 21 23 1 0
BITMAP
94B1D1DDDDDB7300000000
94B1D1DDDDDCCCB3000000
94B1D00000148D9C700000
94B1D1DDDDC941B9A90000
94B1D0000025BA189A7000
94B1D000000006C1B5C200
94B1D0000000006A1D5A00
94B1D0000000000B495D10
94B1D00000000004A49950
94B1D00000000000D1B580
94B1D00000000000D0D3A0
94B1D00000000000D0D2B0
94B1D00000000001D2C3A0
94B1D00000000004A49580
94B1D0000000000B495950
94B1D0000000005B1D0D10
94B1D000000006D1B55A00
94B1D0000015BA1891C200
94B1D1DDDDC931B91A7000
94B1D00000148D60990000
94B1D1DDDDDA614C800000
94B1D00000026BB4000000
94B1D1DDDDDB8300000000
ENDCHAR
STARTCHAR E
ENCODING 69
SWIDTH 677 0
DWIDTH 19 0
BBX 18 23 1 0
BITMAP
94B1D1DDDDDDDDDDD1
94B1D1DDDDDDDDDDD1
94B1D0000000000000
94B1D1DDDDDDDDDDD1
94B1D0000000000000
94B1D0000000000000
94B1D0000000000000
94B1D0000000000000
94B1D0000000000000
94B1D1DDDDDDDDD700
94B1D0000000000000
94B1D1DDDDDDDDD700
94B1D0000000000000
94B1D1DDDDDDDDD700
94B1D0000000000000
94B1D0000000000000
94B1D0000000000000
94B1D0000000000000
94B1D1DDDDDDDDDDD1
94B1D0000000000000
94B1D1DDDDDDDDDDD1
94B1D0000000000000
94B1D1DDDDDDDDDDD1
ENDCHAR
STARTCHAR F
ENCODING 70
SWIDTH 677 0
DWIDTH 19 0
BBX 18 23 1 0
BITMAP
94B1D1DDDDDDDDDDD1
94B1D1DDDDDDDDDDD1
94B1D0000000000000
94B1D1DDDDDDDDDDD1
94B1D0000000000000
94B1D0000000000000
94B1D0000000000000
94B1D0000000000000
94B1D0000000000000
94B1D1DDDDDDDDD700
94B1D0000000000000
94B1D1DDDDDDDDD700
94B1D0000000000000
94B1D1DDDDDDDDD700
94B1D0000000000000
94B1D0000000000000
94B1D0000000000000
94B1D0000000000000
94B1D0000000000000
94B1D0000000000000
94B1D0000000000000
94B1D0000000000000
94B1D0000000000000
ENDCHAR
STARTCHAR G
ENCODING 71
SWIDTH 872 0
DWIDTH 24 0
BBX 24 23 0 0
BITMAP
0000000159CDDDDA72000000
0000007DBBCDDDCB9CA20000
00002CABC6200026CA6D5000
0002D7D516BDDDB616C4C600
001C6D34D9310139D43D2C30
0087C46C200000002C56A100
01D593C10000000001D21000
076B2B400000000000200000
0B2C1C000000000000000000
0D3A48000000000000000000
1C48660000006DDDDDDDDDD8
2B4866000000000000000000
1C3A480000006DDDDDDDDDD8
0D1C1C000000000000000000
0B2B2A4000006DDDDDDDDDD8
076593C10000000000312121
01D0C46C200000000993D1D1
00872D34D8310027D72C4780
001C43D517BDDDB724D54C00
0002D419B6200025BB25C200
00002C8127BDDDB8318C1000
0000007D841000148D700000
0000000159CDDDCA51000000
ENDCHAR
STARTCHAR H
ENCODING 72
SWIDTH 781 0
DWIDTH 22 0
BBX 20 23 1 0
BITMAP
94B1D0000000001C3967
94B1D0000000001C3967
94B1D0000000001C3967
94B1D0000000001C3967
94B1D0000000001C3967
94B1D0000000001C3967
94B1D0000000001C3967
94B1D0000000001C3967
94B1D0000000001C3967
94B1D1DDDDDDDC1C3967
94B1D0000000001C3967
94B1D1DDDDDDDC1C3967
94B1D0000000001C3967
94B1D1DDDDDDDC1C3967
94B1D0000000001C3967
94B1D0000000001C3967
94B1D0000000001C3967
94B1D0000000001C3967
94B1D0000000001C3967
94B1D0000000001C3967
94B1D0000000001C3967
94B1D0000000001C3967
94B1D0000000001C3967
ENDCHAR
STARTCHAR I
ENCODING 73
SWIDTH 262 0
DWIDTH 7 0
BBX 5 23 1 0
BITMAP
94B1D0
94B1D0
94B1D0
94B1D0
94B1D0
94B1D0
94B1D0
94B1D0
94B1D0
94B1D0
94B1D0
94B1D0
94B1D0
94B1D0
94B1D0
94B1D0
94B1D0
94B1D0
94B1D0
94B1D0
94B1D0
94B1D0
94B1D0
ENDCHAR
STARTCHAR J
ENCODING 74
SWIDTH 674 0
DWIDTH 19 0
BBX 18 23 0 0
BITMAP
0000000000001C3967
0000000000001C3967
0000000000001C3967
0000000000001C3967
0000000000001C3967
0000000000001C3967
0000000000001C3967
0000000000001C3967
0000000000001C3967
0000000000001C3967
0000000000001C3967
0000000000001C3967
0000000000001C3967
2332410000001C3967
6775A30000002B4967
596786000000495776
2B2B3C000000B494A4
0D2B38A3002992C1D0
0693D25BDDB51C4680
00C44D720026D52C10
002D517BDDC823D300
0001BA4000039C2000
000005ADDDDA500000
ENDCHAR
STARTCHAR K
ENCODING 75
SWIDTH 739 0
DWIDTH 21 0
BBX 20 23 1 0
BITMAP
94B1D00000001C3965B0
94B1D0000000974B1D10
94B1D0000004B1D2B500
94B1D000001C2A569000
94B1D00000A66A2C1000
94B1D00005A2D1C30000
94B1D0001C1B48800000
94B1D00035784C000000
94B1D00642C1C2000000
94B1D022D22A60000000
94B1D0874B1800000000
94B1D61C488000000000
94B1D692D2B500000000
94B1D0A65B2D20000000
94B1D01C3884C0000000
94B1D003C1C479000000
94B1D0005A2D2A600000
94B1D0000974C1C30000
94B1D00000C4793C1000
94B1D000002D2B56A000
94B1D0000005B1D29700
94B1D0000000883C1C30
94B1D00000000B56A2D1
ENDCHAR
STARTCHAR L
ENCODING 76
SWIDTH 604 0
DWIDTH 17 0
BBX 16 23 1 0
BITMAP
94B1D00000000000
94B1D00000000000
94B1D00000000000
94B1D00000000000
94B1D00000000000
94B1D00000000000
94B1D00000000000
94B1D00000000000
94B1D00000000000
94B1D00000000000
94B1D00000000000
94B1D00000000000
94B1D00000000000
94B1D00000000000
94B1D00000000000
94B1D00000000000
94B1D00000000000
94B1D00000000000
94B1D1DDDDDDDDD7
94B1D00000000000
94B1D1DDDDDDDDD7
94B1D00000000000
94B1D1DDDDDDDDD7
ENDCHAR
STARTCHAR M
ENCODING 77
SWIDTH 909 0
DWIDTH 25 0
BBX 24 23 1 0
BITMAP
94B1D000000000000075A3C1
94B1D000000000000175A3C1
94B1D150000000003775A3C1
94B1D0C200000000C375A3C1
94B1D04B000000087075A3C1
94B1D1387000004C1675A3C1
94B1D1C1C30001D29675A3C1
94B1D0793C000964B075A3C1
94B1D11B47904B1D2475A3C1
94B1D1B2D1B472A56775A3C1
94B1D0A65A2D15A2C175A3C1
94B1D01D2A65A21C3075A3C1
94B1D004C1D2A6480075A3C1
94B1D000874C1D200075A3C1
94B1D0000C3874200075A3C1
94B1D00003C1C2000075A3C1
94B1D000007910000075A3C1
94B1D000000A00000075A3C1
94B1D000000000000075A3C1
94B1D000000000000075A3C1
94B1D000000000000075A3C1
94B1D000000000000075A3C1
94B1D000000000000075A3C1
ENDCHAR
STARTCHAR N
ENCODING 78
SWIDTH 796 0
DWIDTH 22 0
BBX 20 23 1 0
BITMAP
94B1D0000000000A3C1D
94B1D0100000000A3C1D
94B1D1900000000A3C1D
94B1D0B50000000A3C1D
94B1D02D1000000A3C1D
94B1D165A000000A3C1D
94B1D0C2A600000A3C1D
94B1D03C1D20000A3C1D
94B1D14874B0000A3C1D
94B1D1C1C397000A3C1D
94B1D0693C1C300A3C1D
94B1D00B5783C00A3C1D
94B1D002D1B4880A3C1D
94B1D0005A2D1C3A3C1D
94B1D0000A66A25A3C1D
94B1D00001D2A50A3C1D
94B1D000004B1D1A3C1D
94B1D0000009755A3C1D
94B1D0000001C31A3C1D
94B1D00000003C0A3C1D
94B1D0000000085A3C1D
94B1D0000000002A3C1D
94B1D0000000000A3C1D
ENDCHAR
STARTCHAR O
ENCODING 79
SWIDTH 894 0
DWIDTH 25 0
BBX 25 23 0 0
BITMAP
0000000159CDDDC95100000000
0000007DBBCDDDCBBD70000000
00002CABC6200026BBAC200000
0002D7D516BDDDB715D7D20000
001C6D34D9310138D53D6C1000
0087C46C200000002C64C78000
01D593C10000000001C395C200
076B2B4000000000003B2B6700
0B2C1C0000000000000C2C2C00
0D3A4800000000000008593C00
1C486600000000000006784B10
2B486600000000000006784A20
1C3A4800000000000008593B10
0D1C1C0000000000000C2C1C00
0B2B2A4000000000003B2B1C00
076593C10000000001C3956700
01D0C46C200000001B64C0C200
00872D34D8310138D53D268000
001C43D517BDDDB715D33C1000
0002D419B6200026BA24D20000
00002C8127BDDDB7218C200000
0000007D841000148D70000000
0000000159CDDDCA5100000000
ENDCHAR
STARTCHAR P
ENCODING 80
SWIDTH 743 0
DWIDTH 21 0
BBX 20 23 1 0
BITMAP
94B1D1DDDDDDDDA50000
94B1D1DDDDDDDCBAB100
94B1D0000000017C7B00
94B1D1DDDDDDDB359960
94B1D000000003D1C3C0
94B1D0000000008593D0
94B1D0000000008593C1
94B1D000000003D1C1D0
94B1D1DDDDDDDB35A2C0
94B1D0000000017C1950
94B1D1DDDDDDDC817B00
94B1D0000000014BA100
94B1D1DDDDDDDCA40000
94B1D000000000000000
94B1D000000000000000
94B1D000000000000000
94B1D000000000000000
94B1D000000000000000
94B1D000000000000000
94B1D000000000000000
94B1D000000000000000
94B1D000000000000000
94B1D000000000000000
ENDCHAR
STARTCHAR Q
ENCODING 81
SWIDTH 911 0
DWIDTH 26 0
BBX 25 23 0 0
BITMAP
0000000159CDDDCA5100000000
0000007DBBCDDDCBBD71000000
00002CABC6200026BB9C200000
0002D7D516BDDDB715D7D30000
001C6D34D9310138D43D5D1000
0087C46C200000002C64C6A000
01D593C10000000001D395C300
076B2B4000000000004B2B5800
0B2C1C0000000000000D1C2D00
0D3A48000000000000094A3D00
1C486600000000000007685B20
2B486600000000000007694A20
1C3A48000000000007095A3B10
0D1C1C000000000028B21D1D00
0B2B2A4000000002D38B193A00
076593C1000000773D38A08500
01D0C46C2000000B73D38A2000
00872D34D8310033B63D28A000
001C43D517BDDDA51C54D29A00
0002D419B6200138B2C54D2970
00002C8127BDDDB7222C44D200
0000007D84100014AD42C44100
0000000159CDDDC950002B0000
ENDCHAR
STARTCHAR R
ENCODING 82
SWIDTH 745 0
DWIDTH 21 0
BBX 20 23 1 0
BITMAP
94B1D1DDDDDDDDA50000
94B1D1DDDDDDDCBAB100
94B1D0000000017C7B00
94B1D1DDDDDDDB359960
94B1D000000003D1C3C0
94B1D0000000008593D0
94B1D0000000008593C1
94B1D000000003D1C1D0
94B1D1DDDDDDDB35A2C0
94B1D0000000017C1950
94B1D1DDDDDDDC817B00
94B1D0000000014BA100
94B1D1DDDDDDDCA40000
94B1D000001010400000
94B1D00000B2B3A30000
94B1D0000059594A0000
94B1D000000D1D1C1000
94B1D000000777768000
94B1D0000001C1D1D000
94B1D000000094958600
94B1D00000003B3C2C00
94B1D00000000B2B3A30
94B1D0000000059594A0
ENDCHAR
STARTCHAR S
ENCODING 83
SWIDTH 660 0
DWIDTH 18 0
BBX 17 23 1 0
BITMAP
00005ADDDDB7200000
004DBBCDDCBAC91000
06C9D620014BA7C100
3C7B15BDDC717A6A00
B4D1B930027D1B3C20
E2B4A0000006855210
C2A490000001200000
D0D2C8100000000000
A35B26CA5100000000
2C14C9338CB5000000
04B305AC8428C50000
0019A50149D82A9000
000017BA6206C48900
000000015AB41C2C20
00000000001A749670
000000000000D1C390
125670000001C2B4A0
D1C1C820015C577680
A48916BDDC924C1C30
2C18C510014AC27A00
05C228CDDCA507C100
004C94000027C91000
00005ADDDDB7200000
ENDCHAR
STARTCHAR T
ENCODING 84
SWIDTH 641 0
DWIDTH 18 0
BBX 18 23 0 0
BITMAP
9DDDDDDDDDDDDDDDD9
9DDDDDDDDDDDDDDDD9
000000000000000000
9DDDDDDDDDDDDDDDD9
000000011110000000
000000487694000000
000000487694000000
000000487694000000
000000487694000000
000000487694000000
000000487694000000
000000487694000000
000000487694000000
000000487694000000
000000487694000000
000000487694000000
000000487694000000
000000487694000000
000000487694000000
000000487694000000
000000487694000000
000000487694000000
000000487694000000
ENDCHAR
STARTCHAR U
ENCODING 85
SWIDTH 702 0
DWIDTH 20 0
BBX 18 23 1 0
BITMAP
94B1D0000000487694
94B1D0000000487694
94B1D0000000487694
94B1D0000000487694
94B1D0000000487694
94B1D0000000487694
94B1D0000000487694
94B1D0000000487694
94B1D0000000487694
94B1D0000000487694
94B1D0000000487694
94B1D0000000487694
94B1D0000000487694
94B1D0000000487694
94B2D0000000587694
8593B20000008694A3
676769000001D1C1C1
2C1D1B82003B64A3B0
0A46B17CDDA43D2950
02D17C610028D35B00
005C228CDDB616C100
0003D8300014AB1000
000016BDDDDA400000
ENDCHAR
STARTCHAR V
ENCODING 86
SWIDTH 758 0
DWIDTH 21 0
BBX 21 23 0 0
BITMAP
4959580000000005958680
0D1D1D000000000A4A3B30
094A4A300000001D1D1C00
0495958000000059586700
00D1D1D0000000A4A3B200
0094A3B3000001D1D1C000
0049586800000595867000
000D1D1C00000A4A3B2000
000A4A3B30001D1D1C0000
0005958680005958670000
0000D1D1C000A4B3B20000
0000A4A3B300D1C1C00000
0000595868059686700000
00001D1D1C0A4B3B200000
00000A4B3B281C1C000000
0000059686716867000000
000001D1C1C0B3B2000000
000000A3B3B281C0000000
0000005868670670000000
0000001D1C2C0B20000000
0000000A3B3B2700000000
0000000586877000000000
00000001D1C2C000000000
ENDCHAR
STARTCHAR W
ENCODING 87
SWIDTH 972 0
DWIDTH 27 0
BBX 27 23 0 0
BITMAP
5867850000049587600002B49580
1C2A49000008594A300006776940
0C1D1C00000B2C1D00000A3B2C10
094A3B10000C1B3A00000D1D1C00
058668500049587600002B495800
01C3A490008594B2500067769400
00C1D1C000B1C1D0C000A3B2C100
0094A3C100C1B3A0B200D0D1C000
00587685049577617602B3958000
002B3A4908594B273A0677694000
000C1D1C0B1C1D0C1D0A3B2C1000
00094B2C1A1B3A094B290D2B0000
0005776853577625876239580000
0002B3A58094B291C3A076940000
0000D1D1C0C1D0B2C1D0B2C10000
000093B2C193A08694B282B00000
000067769427604A587615800000
00002B39580B200D1C3A09400000
00000D1D1C0D000B2C1D0C000000
00000A3B2C170008694B27000000
0000067769410004958761000000
000002B495800000D1C3A0000000
000000D1C1C00000B2C1D0000000
ENDCHAR
STARTCHAR X
ENCODING 88
SWIDTH 712 0
DWIDTH 20 0
BBX 20 23 0 0
BITMAP
0A5875A000000A587690
02D1D1C300003B2D1D10
0087693B0000B3958700
001D1C3A5004A3C2D000
000694B2D00C2B395000
0000C3A587485A3C0000
00004B2C1D21C2B30000
00000A48769485A00000
000002C1D1C31C200000
00000087694B38000000
0000001D1C2A40000000
0000000694B2C0000000
00000041C2B486000000
000001D14B2C1D100000
000008751B4966800000
00002C1D12C1D1C20000
0000A4866396784A0000
0004B2C1D11D1C2B4000
000C2B48600785A3C000
00684A2C0000C2B49600
01D1C2B400005A3C1D10
096784A000000B496780
2C1D1C20000003C2D1D2
ENDCHAR
STARTCHAR Y
ENCODING 89
SWIDTH 769 0
DWIDTH 22 0
BBX 22 23 0 0
BITMAP
693C1D200000000884B2D1
0B4875A00000003C1D2B40
02C1C2A5000000C3975A00
00784B2D10000793C1D100
000C396690002D1C3A6000
0003C1D2B400B4784B0000
0000875A2D16A2C1D20000
00001C2A57841B48700000
000004B2D1C3593C000000
000000A6693C11C3000000
0000001D1B397480000000
00000005A2C1D200000000
0000000020211100000000
0000000064829100000000
0000000075A3C100000000
0000000075A3C100000000
0000000075A3C100000000
0000000075A3C100000000
0000000075A3C100000000
0000000075A3C100000000
0000000075A3C100000000
0000000075A3C100000000
0000000075A3C100000000
ENDCHAR
STARTCHAR Z
ENCODING 90
SWIDTH 708 0
DWIDTH 20 0
BBX 20 23 0 0
BITMAP
009DDDDDDDDDB2D1C2B4
009DDDDDDDD90A5875A0
0000000000004B2C1D10
009DDDDDDD70C2B48600
00000000000785A3C000
00000000002C1D2B3000
0000000000A487690000
0000000005A3C1D10000
000000001C2B39600000
0000000087593B000000
00000002C1D1C3000000
0000000B496680000000
0000005A3C1D10000000
000001D2C3A500000000
0000086694B000000000
00003C1D1C2000000000
0000B396780000000000
000693B2C10000000000
001D1C3A5BDDDDDDD700
0096784B000000000000
03C2D1C3CDDDDDDDD700
0C3A5770000000000000
694B2C2DDDDDDDDDD700
ENDCHAR
STARTCHAR bracketleft
ENCODING 91
SWIDTH 320 0
DWIDTH 9 0
BBX 7 13 1 -1
BITMAP
83B2DD70
94B2DD70
94B10000
94B10000
94B10000
94B10000
94B10000
94B10000
94B10000
94B10000
94B2DD70
94B10000
83B2DD70
ENDCHAR
STARTCHAR backslash
ENCODING 92
SWIDTH 298 0
DWIDTH 8 0
BBX 8 12 0 0
BITMAP
1D1D0000
0A3B3000
05867000
01C1C000
00B2C200
00677700
002C2B00
000C2C10
00077860
0002B3B0
0000C1D1
00008685
ENDCHAR
STARTCHAR bracketright
ENCODING 93
SWIDTH 320 0
DWIDTH 9 0
BBX 7 13 1 -1
BITMAP
8DD2A480
8DD2B480
0002B480
0002B480
0002B480
0002B480
0002B480
0002B480
0002B480
0002B480
8DD2B480
0002B480
8DD2A480
ENDCHAR
STARTCHAR asciicircum
ENCODING 94
SWIDTH 309 0
DWIDTH 9 0
BBX 7 5 1 7
BITMAP
00190000
00952000
03B1C000
0B438600
5A2C1D10
ENDCHAR
STARTCHAR underscore
ENCODING 95
SWIDTH 472 0
DWIDTH 13 0
BBX 11 3 1 0
BITMAP
8DDDDDDDDDB0
000000000000
8DDDDDDDDDB0
ENDCHAR
STARTCHAR grave
ENCODING 96
SWIDTH 195 0
DWIDTH 5 0
BBX 3 3 1 14
BITMAP
5A00
0B30
03C0
ENDCHAR
STARTCHAR a
ENCODING 97
SWIDTH 414 0
DWIDTH 12 0
BBX 12 12 0 0
BITMAP
0000C2D60000
0002B3DB0000
0007686D1000
000C1D686000
002B3DB2B000
008686D2C200
00C1D2877700
03B3C03C2C00
0859EDDF2C20
0D1D20087770
3A4FDDDDD2C0
85950000C3B2
ENDCHAR
STARTCHAR b
ENCODING 98
SWIDTH 423 0
DWIDTH 12 0
BBX 10 12 1 0
BITMAP
C0FDDDEC30
C0C00004D1
C0FDDDD567
C0C0001C3A
C0C0001C2A
C0FDDDEE98
C0C00002B6
C0FDDDDA1C
C0C0000C2D
C0FDDDDA1C
C0C00001A6
C0FDDDDD60
ENDCHAR
STARTCHAR c
ENCODING 99
SWIDTH 446 0
DWIDTH 12 0
BBX 12 12 0 0
BITMAP
00017CDDB500
003C710029B1
01C23ADD9265
0955C4004B00
0D1D10000000
1B4900000000
1B4900000000
0D1D10000000
0955C4004B00
01C24ADD9265
003C710029B1
00017CDDB600
ENDCHAR
STARTCHAR d
ENCODING 100
SWIDTH 450 0
DWIDTH 13 0
BBX 11 12 1 0
BITMAP
C0FDDDB50000
C0C00039B100
C0FDDD926A00
C0C0016D2A30
C0C000059490
C0C00000D2B0
C0C00000D2B0
C0C000059480
C0C0016D2A30
C0FDDD926A00
C0C00039B100
C0FDDDB50000
ENDCHAR
STARTCHAR e
ENCODING 101
SWIDTH 363 0
DWIDTH 10 0
BBX 9 12 1 0
BITMAP
C0FDDDDD90
C0C0000000
C0FDDDDD90
C0C0000000
C0C0000000
C0FDDDDA00
C0C0000000
C0FDDDDA00
C0C0000000
C0FDDDDD90
C0C0000000
C0FDDDDD90
ENDCHAR
STARTCHAR f
ENCODING 102
SWIDTH 365 0
DWIDTH 10 0
BBX 9 12 1 0
BITMAP
C0FDDDDD90
C0C0000000
C0FDDDDD90
C0C0000000
C0C0000000
C0FDDDDA00
C0C0000000
C0FDDDDA00
C0C0000000
C0C0000000
C0C0000000
C0C0000000
ENDCHAR
STARTCHAR g
ENCODING 103
SWIDTH 483 0
DWIDTH 14 0
BBX 13 12 0 0
BITMAP
00017CDDB60000
003C710029B100
01C23ADDA25A00
0955C4004C2100
0D1D1000000000
1B490007DDDD90
1B490000000000
0D1D1007DDEDA0
0955C4004C4860
01C24ADDA34C00
003C710028C100
00017CDEC70000
ENDCHAR
STARTCHAR h
ENCODING 104
SWIDTH 428 0
DWIDTH 12 0
BBX 10 12 1 0
BITMAP
C0C0000C0C
C0C0000C0C
C0C0000C0C
C0C0000C0C
C0C0000C0C
C0FDDDDF0C
C0C0000C0C
C0FDDDDF0C
C0C0000C0C
C0C0000C0C
C0C0000C0C
C0C0000C0C
ENDCHAR
STARTCHAR i
ENCODING 105
SWIDTH 176 0
DWIDTH 5 0
BBX 3 12 1 0
BITMAP
C0C0
C0C0
C0C0
C0C0
C0C0
C0C0
C0C0
C0C0
C0C0
C0C0
C0C0
C0C0
ENDCHAR
STARTCHAR j
ENCODING 106
SWIDTH 390 0
DWIDTH 11 0
BBX 10 12 0 0
BITMAP
0000000D1C
0000000D1C
0000000D1C
0000000D1C
0000000D1C
0000000D1C
0000000D1C
1937000D1C
0D1D206A3A
0A44CDA194
02D61029A0
0019DDC700
ENDCHAR
STARTCHAR k
ENCODING 107
SWIDTH 381 0
DWIDTH 11 0
BBX 10 12 1 0
BITMAP
C0C00693B0
C0C00D2B30
C0C0684A00
C0C1D1C200
C0C7769000
C0C97C1000
C0D1D80000
C0F92D1000
C0CB55B000
C0C1D29800
C0C03C1C40
C0C007A2D1
ENDCHAR
STARTCHAR l
ENCODING 108
SWIDTH 330 0
DWIDTH 9 0
BBX 8 12 1 0
BITMAP
C0C00000
C0C00000
C0C00000
C0C00000
C0C00000
C0C00000
C0C00000
C0C00000
C0C00000
C0FDDDDB
C0C00000
C0FDDDDB
ENDCHAR
STARTCHAR m
ENCODING 109
SWIDTH 501 0
DWIDTH 14 0
BBX 12 12 1 0
BITMAP
C0F300003F1D
C0ED1001CE1D
C0C7A00A7C1D
C0E1B66B1E1D
C0EB1DD1BE1D
C0C883C89C1D
C0C0C47C0C1D
C0C02D210C1D
C0C004500C1D
C0C000000C1D
C0C000000C1D
C0C000000C1D
ENDCHAR
STARTCHAR n
ENCODING 110
SWIDTH 444 0
DWIDTH 12 0
BBX 11 12 1 0
BITMAP
C0F300067850
C0EC00067850
C0C970067850
C0D1D3067850
C0F84C067850
C0CC38767850
C0C2C1C87850
C0C0793F7850
C0C00B487850
C0C002C67850
C0C0006E7850
C0C0000B7850
ENDCHAR
STARTCHAR o
ENCODING 111
SWIDTH 494 0
DWIDTH 14 0
BBX 13 12 0 0
BITMAP
00017CDDC60000
003C710028C200
01C23ADDA24C00
0955C4015D3860
0D1D100003C1C0
1B49000000C1C0
1B49000000C1C0
0D1D100003C1B0
0955C4015D3860
01C24ADDA24C00
003C710028C200
00017CDDC60000
ENDCHAR
STARTCHAR p
ENCODING 112
SWIDTH 412 0
DWIDTH 12 0
BBX 10 12 1 0
BITMAP
C0FDDDEB30
C0C00004D1
C0FDDDD467
C0C0002C3A
C0C0002B39
C0FDDDD477
C0C00005D1
C0FDDDDB20
C0C0000000
C0C0000000
C0C0000000
C0C0000000
ENDCHAR
STARTCHAR q
ENCODING 113
SWIDTH 494 0
DWIDTH 14 0
BBX 13 12 0 0
BITMAP
00017CDDC60000
003C710028C200
01C23ADDA24C10
0955C4015D3770
0D1D100003C1C0
1B49000000C1C0
1B49000015C1C0
0D1D10011BC2B0
0955C405B1BD50
01C24ADDAB1B80
003C71003CB160
00017CDDB68700
ENDCHAR
STARTCHAR r
ENCODING 114
SWIDTH 412 0
DWIDTH 12 0
BBX 10 12 1 0
BITMAP
C0FDDDEB30
C0C00004D1
C0FDDDD467
C0C0002C3A
C0C0002B3A
C0FDDDD477
C0C00005D1
C0FDDEED20
C0C01D1C00
C0C0095850
C0C002C2C0
C0C000A4A4
ENDCHAR
STARTCHAR s
ENCODING 115
SWIDTH 379 0
DWIDTH 11 0
BBX 10 12 0 0
BITMAP
003ADDC710
05C40017C0
0D17CDB286
1C3B103724
0C2B940000
04C448B920
0028CA43C2
0000039949
1427002C1B
0D17CDB459
05C40016D2
003ADDD810
ENDCHAR
STARTCHAR t
ENCODING 116
SWIDTH 349 0
DWIDTH 10 0
BBX 10 12 0 0
BITMAP
9DDDDDDDD6
0000000000
9DDEEEDDD6
0007693000
0007693000
0007693000
0007693000
0007693000
0007693000
0007693000
0007693000
0007693000
ENDCHAR
STARTCHAR u
ENCODING 117
SWIDTH 400 0
DWIDTH 11 0
BBX 10 12 1 0
BITMAP
C0C00094C1
C0C00094C1
C0C00094C1
C0C00094C1
C0C00094C1
C0C00094C1
C0C00094C1
C0D000A3C1
B2B503C0D0
682ADB3590
0B81017C10
007DDD9100
ENDCHAR
STARTCHAR v
ENCODING 118
SWIDTH 394 0
DWIDTH 11 0
BBX 11 12 0 0
BITMAP
85940004A490
4A4900095940
0D1D000D1D00
094A403A4A00
049580768500
00D1D0C1D100
00A4B5B3A000
00586D685000
001D1F2C1000
000B3B4B0000
000686D60000
0001C2F20000
ENDCHAR
STARTCHAR w
ENCODING 119
SWIDTH 521 0
DWIDTH 15 0
BBX 15 12 0 0
BITMAP
94A300D1D0094A30
587602B4B00C1D00
2B3A0677E01C3A00
0C1D0A3BC3587700
094B2D1D6794A300
05878B4C2BC1D000
02B3E77F1DC3B000
00C1E3BB5A877000
0094B3D5967A3000
006779A1C2BD0000
002B3F60C1DB0000
000D1E2085A70000
ENDCHAR
STARTCHAR x
ENCODING 120
SWIDTH 369 0
DWIDTH 10 0
BBX 10 12 0 0
BITMAP
3C1D008678
0A5871D1D1
02D1D96770
00967D1D10
002D1C9700
000976E000
000BD1C200
005A885A00
00C2BE2C30
0694B694B0
0D2C30D2B4
785A005A3C
ENDCHAR
STARTCHAR y
ENCODING 121
SWIDTH 422 0
DWIDTH 12 0
BBX 12 12 0 0
BITMAP
692D0002D1C3
0B48800B5790
02D1C35B2D10
00884CD2B500
000C3995A000
0004C1DD2000
000041230000
000076940000
000076940000
000076940000
000076940000
000076940000
ENDCHAR
STARTCHAR z
ENCODING 122
SWIDTH 409 0
DWIDTH 11 0
BBX 10 12 1 0
BITMAP
CDDDDDDDD4
0000000000
CDDDDDEDE5
00001C55C1
0000B64C10
000A73D200
00892D3000
07A1C30000
6B1C500000
CDDEDDDDD4
0000000000
CDDDDDDDD4
ENDCHAR
STARTCHAR braceleft
ENCODING 123
SWIDTH 443 0
DWIDTH 12 0
BBX 10 13 1 -1
BITMAP
0002A478DD
0002A588DD
0002A58000
0002A58000
0002A58000
8DD3A58000
0002A58000
8DD3A58000
0002A58000
0002A58000
0002A588DD
0002A58000
0002A478DD
ENDCHAR
STARTCHAR bar
ENCODING 124
SWIDTH 196 0
DWIDTH 5 0
BBX 4 14 1 -1
BITMAP
4261
94B1
94B1
94B1
94B1
94B1
94B1
94B1
94B1
94B1
94B1
94B1
94B1
94B1
ENDCHAR
STARTCHAR braceright
ENCODING 125
SWIDTH 506 0
DWIDTH 14 0
BBX 10 13 3 -1
BITMAP
BDA5775000
BDA5785000
0005785000
0005785000
0005785000
0005785BDA
0005785000
0005785BDA
0005785000
0005785000
BDA5785000
0005785000
BDA5775000
ENDCHAR
STARTCHAR asciitilde
ENCODING 126
SWIDTH 450 0
DWIDTH 13 0
BBX 11 4 1 4
BITMAP
5BDDB6201550
720038CDD920
4BDDB6201550
730038CDD920
ENDCHAR
STARTCHAR uni00A0
ENCODING 160
SWIDTH 280 0
DWIDTH 8 0
BBX 1 1 0 0
BITMAP
00
ENDCHAR
STARTCHAR exclamdown
ENCODING 161
SWIDTH 196 0
DWIDTH 5 0
BBX 4 12 1 -3
BITMAP
1120
94B1
94B1
0000
94B1
94B1
94B1
94B1
94B1
94B1
94B1
94B1
ENDCHAR
STARTCHAR cent
ENCODING 162
SWIDTH 305 0
DWIDTH 9 0
BBX 8 14 0 -1
BITMAP
00091B00
000B2D00
005BDC70
08C3019A
3D29DC55
86B70260
A4C00000
A4C00000
86B70260
3D29DC55
07B3018A
005BDC70
00091B00
000B2D00
ENDCHAR
STARTCHAR sterling
ENCODING 163
SWIDTH 408 0
DWIDTH 11 0
BBX 11 12 0 0
BITMAP
03ADDD810000
2D40017C1000
584CDC385000
122102211000
BDDDDDDD0000
000000000000
BDDDDDDD0000
000000000000
067760000000
BDDDDDDDDD80
000000000000
BDDDDDDDDD80
ENDCHAR
STARTCHAR currency
ENCODING 164
SWIDTH 401 0
DWIDTH 11 0
BBX 10 10 1 1
BITMAP
0720001900
3390006630
B52ADB22D2
11C504D120
03A4D68400
03A4D69400
00C504D100
952ADB22B1
7170005352
0950002B00
ENDCHAR
STARTCHAR yen
ENCODING 165
SWIDTH 423 0
DWIDTH 12 0
BBX 12 12 0 0
BITMAP
6A2D1002D1C4
0B47800A5690
02D1C35B2D10
00783CD2A500
000C3995B000
0003C1DD2000
000031230000
000067840000
06D867849D40
000067840000
06D867849D40
000067840000
ENDCHAR
STARTCHAR brokenbar
ENCODING 166
SWIDTH 196 0
DWIDTH 5 0
BBX 4 13 1 0
BITMAP
94B1
94B1
94B1
94B1
94B1
0000
0000
0000
94B1
94B1
94B1
94B1
94B1
ENDCHAR
STARTCHAR section
ENCODING 167
SWIDTH 322 0
DWIDTH 9 0
BBX 9 14 0 -2
BITMAP
007CDC8100
08ACDC8B00
0C67035400
0B2BA50000
069226B400
0739B81C00
1A84069920
0C3DA52910
05A448C200
0028C93C00
0232077B10
0C3CDC2C00
07A2019800
006CDC6000
ENDCHAR
STARTCHAR dieresis
ENCODING 168
SWIDTH 287 0
DWIDTH 8 0
BBX 6 2 1 14
BITMAP
5D21D6
6E22E7
ENDCHAR
STARTCHAR copyright
ENCODING 169
SWIDTH 493 0
DWIDTH 14 0
BBX 13 13 0 0
BITMAP
00006BDDA40000
002C92003AA000
00C50000008900
07800000000B40
0C1008DD7004A0
1C007A118301D0
2B00C1000000E0
1C00C1000001D0
0C107A117205A0
078008DD700B40
00C50000008900
002C92003BA100
00006BDDA40000
ENDCHAR
STARTCHAR ordfeminine
ENCODING 170
SWIDTH 331 0
DWIDTH 9 0
BBX 7 5 1 6
BITMAP
01AA7400
056E5900
0A69AA00
19BAD650
66C8A6A0
ENDCHAR
STARTCHAR guillemotleft
ENCODING 171
SWIDTH 298 0
DWIDTH 8 0
BBX 7 6 1 3
BITMAP
01700710
4D51B900
42514320
52741810
8B14D400
05902B00
ENDCHAR
STARTCHAR logicalnot
ENCODING 172
SWIDTH 420 0
DWIDTH 12 0
BBX 10 6 1 1
BITMAP
CDDDDDDDD8
0000000000
CDDDDDDDD8
0000000211
0000002B48
0000002B48
ENDCHAR
STARTCHAR uni00AD
ENCODING 173
SWIDTH 326 0
DWIDTH 9 0
BBX 7 3 1 4
BITMAP
8DDDDDA0
00000000
8DDDDDA0
ENDCHAR
STARTCHAR registered
ENCODING 174
SWIDTH 493 0
DWIDTH 14 0
BBX 13 13 0 0
BITMAP
00006BDDA40000
002C92003AA000
00C50000008900
07800000000B40
0C1057DDB004A0
1C0057009401D0
2B0057009400E0
1C0057DEC101D0
0C105702B105A0
07800000000B40
00C50000008900
002C92003BA100
00006BDDA40000
ENDCHAR
STARTCHAR macron
ENCODING 175
SWIDTH 331 0
DWIDTH 9 0
BBX 7 1 1 14
BITMAP
8DDDDDC0
ENDCHAR
STARTCHAR degree
ENCODING 176
SWIDTH 298 0
DWIDTH 8 0
BBX 6 6 1 6
BITMAP
05CD80
3C2088
939C2C
939C2C
3C2088
05CD80
ENDCHAR
STARTCHAR plusminus
ENCODING 177
SWIDTH 418 0
DWIDTH 12 0
BBX 10 12 1 0
BITMAP
00075A3000
00075A3000
00075A3000
7D775A3AD3
00075A3000
7D775A3AD3
00075A3000
00075A3000
0000000000
CDDDDDDDD8
0000000000
CDDDDDDDD8
ENDCHAR
STARTCHAR uni00B2
ENCODING 178
SWIDTH 233 0
DWIDTH 7 0
BBX 5 5 1 6
BITMAP
3FFA00
248810
175400
7BBB10
7BBB10
ENDCHAR
STARTCHAR uni00B3
ENCODING 179
SWIDTH 228 0
DWIDTH 6 0
BBX 4 5 1 6
BITMAP
4FF9
11B6
117A
77A9
1BB5
ENDCHAR
STARTCHAR acute
ENCODING 180
SWIDTH 195 0
DWIDTH 5 0
BBX 3 3 1 14
BITMAP
03B0
0B30
5A00
ENDCHAR
STARTCHAR uni00B5
ENCODING 181
SWIDTH 506 0
DWIDTH 14 0
BBX 13 16 1 -4
BITMAP
94B10058750000
94B10058750000
94B10058750000
94B10058750000
94B10058750000
94B10058750000
94B10058750000
94B10067850000
94B201C3A40100
94B5DC62C4D600
94B2004D530110
94B6DEA33CDD40
94B10000000000
94B10000000000
94B10000000000
42510000000000
ENDCHAR
STARTCHAR paragraph
ENCODING 182
SWIDTH 435 0
DWIDTH 12 0
BBX 11 12 0 0
BITMAP
008DDDDDDDA0
098000000000
1C1BDDDDDDA0
396800000000
396802A671C0
1C1BD2A671C0
089102A671C0
008DD2A671C0
000002A671C0
000002A671C0
000002A671C0
000002A671C0
ENDCHAR
STARTCHAR periodcentered
ENCODING 183
SWIDTH 176 0
DWIDTH 5 0
BBX 3 3 1 5
BITMAP
2020
C0C0
C0C0
ENDCHAR
STARTCHAR cedilla
ENCODING 184
SWIDTH 261 0
DWIDTH 7 0
BBX 5 6 1 -5
BITMAP
001000
04B000
0DDD40
0402C0
1303C0
3BDC30
ENDCHAR
STARTCHAR uni00B9
ENCODING 185
SWIDTH 218 0
DWIDTH 6 0
BBX 4 5 1 6
BITMAP
DF88
0088
0088
0088
0088
ENDCHAR
STARTCHAR ordmasculine
ENCODING 186
SWIDTH 335 0
DWIDTH 9 0
BBX 7 7 1 6
BITMAP
019BB400
1C401B50
676B92C0
868037C0
688038C0
1C8BAA50
02BBB600
ENDCHAR
STARTCHAR guillemotright
ENCODING 187
SWIDTH 298 0
DWIDTH 8 0
BBX 7 6 1 3
BITMAP
71044000
5D42C800
52442500
72545320
1B807C10
95059000
ENDCHAR
STARTCHAR onequarter
ENCODING 188
SWIDTH 429 0
DWIDTH 12 0
BBX 12 12 0 0
BITMAP
187820009730
187820047900
006820098200
006820478000
006820982000
006825680000
000009818830
000056819900
000098177400
000667000683
000991078783
007670078783
ENDCHAR
STARTCHAR onehalf
ENCODING 189
SWIDTH 437 0
DWIDTH 12 0
BBX 12 12 0 0
BITMAP
197820018A00
197820086500
00682028A000
006820974000
006822790000
006829730000
000037906980
000098338A85
000479012974
000982007560
005680039993
007610039993
ENDCHAR
STARTCHAR threequarters
ENCODING 190
SWIDTH 409 0
DWIDTH 11 0
BBX 11 12 0 0
BITMAP
059910013400
189650086600
004910289000
004750974000
189753790000
059809730000
000047829900
000098288300
000668199000
001991495880
007660000880
019900495880
ENDCHAR
STARTCHAR questiondown
ENCODING 191
SWIDTH 346 0
DWIDTH 10 0
BBX 8 12 1 -2
BITMAP
0085A300
00648200
00112100
0085A300
0094B200
05C1D000
3C1A7000
75880000
84B34352
675DC2C1
1C401890
02ADD800
ENDCHAR
STARTCHAR Agrave
ENCODING 192
SWIDTH 798 0
DWIDTH 22 0
BBX 22 31 0 0
BITMAP
000000694B000000000000
0000000C2A400000000000
00000004B2C00000000000
00000000B4860000000000
000000002C1D1000000000
0000000009668000000000
0000000000000000000000
0000000000000000000000
0000000076868500000000
00000000C1D1D220000000
00000003A4A4A570000000
00000008595941C0000000
0000000D1D1D34B3000000
0000004A59594958000000
00000094A4A31D1D000000
000000D1D1D4685A400000
000005958682C3A4900000
00000A3B3B20C2C1D00000
00001C1C2C006776950000
0000686777001C2B3A0000
0000B2C2C2000B3C2C1000
0001C2C2B0000687786000
000677686ADDD3D1C2B000
000C2C1C100000A3B3C200
002B3B3A6DDDDB59686700
007686950000000D1D1C00
00C1D1D2DDDDDD794A3B30
03A4A49000000004959580
08595A4000000000D1D1D0
0D1D1D00000000008594A4
49595800000000003A4A49
ENDCHAR
STARTCHAR Aacute
ENCODING 193
SWIDTH 798 0
DWIDTH 22 0
BBX 22 31 0 0
BITMAP
0000000000001D1B300000
000000000000775A000000
000000000001D1D2000000
0000000000095780000000
00000000003C1D10000000
0000000000B49600000000
0000000000000000000000
0000000000000000000000
0000000076868500000000
00000000C1D1D220000000
00000003A4A4A570000000
00000008595941C0000000
0000000D1D1D34B3000000
0000004A59594958000000
00000094A4A31D1D000000
000000D1D1D4685A400000
000005958682C3A4900000
00000A3B3B20C2C1D00000
00001C1C2C006776950000
0000686777001C2B3A0000
0000B2C2C2000B3C2C1000
0001C2C2B0000687786000
000677686ADDD3D1C2B000
000C2C1C100000A3B3C200
002B3B3A6DDDDB59686700
007686950000000D1D1C00
00C1D1D2DDDDDD794A3B30
03A4A49000000004959580
08595A4000000000D1D1D0
0D1D1D00000000008594A4
49595800000000003A4A49
ENDCHAR
STARTCHAR Acircumflex
ENCODING 194
SWIDTH 798 0
DWIDTH 22 0
BBX 22 31 0 0
BITMAP
000000004C1C3000000000
00000001D2973800000000
0000000A65B11C40000000
0000005B1D25A2D1000000
000002D2B500B56A000000
00000B56A0001D2A600000
0000000000000000000000
0000000000000000000000
0000000076868500000000
00000000C1D1D220000000
00000003A4A4A570000000
00000008595941C0000000
0000000D1D1D34B3000000
0000004A59594958000000
00000094A4A31D1D000000
000000D1D1D4685A400000
000005958682C3A4900000
00000A3B3B20C2C1D00000
00001C1C2C006776950000
0000686777001C2B3A0000
0000B2C2C2000B3C2C1000
0001C2C2B0000687786000
000677686ADDD3D1C2B000
000C2C1C100000A3B3C200
002B3B3A6DDDDB59686700
007686950000000D1D1C00
00C1D1D2DDDDDD794A3B30
03A4A49000000004959580
08595A4000000000D1D1D0
0D1D1D00000000008594A4
49595800000000003A4A49
ENDCHAR
STARTCHAR Atilde
ENCODING 195
SWIDTH 798 0
DWIDTH 22 0
BBX 22 29 0 0
BITMAP
00000008DC400004600000
0000008912C50008500000
000000D0001C504D100000
000001900001ADB3000000
0000000000000000000000
0000000000000000000000
0000000076868500000000
00000000C1D1D220000000
00000003A4A4A570000000
00000008595941C0000000
0000000D1D1D34B3000000
0000004A59594958000000
00000094A4A31D1D000000
000000D1D1D4685A400000
000005958682C3A4900000
00000A3B3B20C2C1D00000
00001C1C2C006776950000
0000686777001C2B3A0000
0000B2C2C2000B3C2C1000
0001C2C2B0000687786000
000677686ADDD3D1C2B000
000C2C1C100000A3B3C200
002B3B3A6DDDDB59686700
007686950000000D1D1C00
00C1D1D2DDDDDD794A3B30
03A4A49000000004959580
08595A4000000000D1D1D0
0D1D1D00000000008594A4
49595800000000003A4A49
ENDCHAR
STARTCHAR Adieresis
ENCODING 196
SWIDTH 798 0
DWIDTH 22 0
BBX 22 31 0 0
BITMAP
000002BDA10007DC600000
00000C405B005A11B50000
000039000C10A3003A0000
000039000C10A3003A0000
00000C305B005A11B50000
000002BDA10007DC600000
0000000000000000000000
0000000000000000000000
0000000076868500000000
00000000C1D1D220000000
00000003A4A4A570000000
00000008595941C0000000
0000000D1D1D34B3000000
0000004A59594958000000
00000094A4A31D1D000000
000000D1D1D4685A400000
000005958682C3A4900000
00000A3B3B20C2C1D00000
00001C1C2C006776950000
0000686777001C2B3A0000
0000B2C2C2000B3C2C1000
0001C2C2B0000687786000
000677686ADDD3D1C2B000
000C2C1C100000A3B3C200
002B3B3A6DDDDB59686700
007686950000000D1D1C00
00C1D1D2DDDDDD794A3B30
03A4A49000000004959580
08595A4000000000D1D1D0
0D1D1D00000000008594A4
49595800000000003A4A49
ENDCHAR
STARTCHAR Aring
ENCODING 197
SWIDTH 798 0
DWIDTH 22 0
BBX 22 31 0 0
BITMAP
0000000005CD9100000000
000000005C207A00000000
00000000A4000C00000000
00000000A4000C00000000
000000004B107A00000000
0000000005CD9100000000
0000000000000000000000
0000000000000000000000
0000000076868500000000
00000000C1D1D220000000
00000003A4A4A570000000
00000008595941C0000000
0000000D1D1D34B3000000
0000004A59594958000000
00000094A4A31D1D000000
000000D1D1D4685A400000
000005958682C3A4900000
00000A3B3B20C2C1D00000
00001C1C2C006776950000
0000686777001C2B3A0000
0000B2C2C2000B3C2C1000
0001C2C2B0000687786000
000677686ADDD3D1C2B000
000C2C1C100000A3B3C200
002B3B3A6DDDDB59686700
007686950000000D1D1C00
00C1D1D2DDDDDD794A3B30
03A4A49000000004959580
08595A4000000000D1D1D0
0D1D1D00000000008594A4
49595800000000003A4A49
ENDCHAR
STARTCHAR AE
ENCODING 198
SWIDTH 1078 0
DWIDTH 30 0
BBX 30 23 0 0
BITMAP
000000000000C1C3A4DDDDDDDDDDD5
000000000013C1D1C2DDDDDDDDDDD5
000000000075A2C1D0000000000000
0000000001C084B2C0CDDDDDDDDDD5
0000000007727694B2000000000000
000000001C1A587694000000000000
000000006778395775000000000000
00000000C1D11B4967000000000000
0000000686830C2B49000000000000
0000000C1D2A2C0C2B4DDDDDDDDA00
00000068593B0B1D1C000000000000
000000C2C2A4093C1D1DDDDDDDDA00
00000595A2C0085A3C100000000000
00000C2C395006784A2BDDDDDDDA00
0000594A2C00048769400000000000
0000C2B3950002A587600000000000
0004A3B2C0CDC1C3A5800000000000
000B3B49500000D1B4900000000000
004A3B1C0BDDD2C0D2B3DDDDDDDDD5
00B3A486000000B2D0D00000000000
03B2C1D0BDDDD594B2D0DDDDDDDDD5
0B4958600000007693C10000000000
3B2C1D000000005785A3ADDDDDDDD5
ENDCHAR
STARTCHAR Ccedilla
ENCODING 199
SWIDTH 776 0
DWIDTH 22 0
BBX 21 30 0 -7
BITMAP
0000000159CDDDDA720000
0000007DBBCDDDBA9CB400
00002CABC6200027C94C80
0002D7D516BDDDB616C220
001C6D34D9310038D54300
0087C46C200000001A1000
01D593C100000000000000
076B2B4000000000000000
0B2C1C0000000000000000
0D3A480000000000000000
1C48660000000000000000
2B48660000000000000000
1C3A480000000000000000
0D1C1C0000000000000000
0B2B2A4000000000000000
076593C100000000000000
01D0C46C200000001A1000
00872D34D8310038D44300
001C43D517BDDDB616C210
0002D419B6200027C91990
00002C8127BDDDB722B900
0000007D84100015AC4000
0000000159DEDDC9400000
0000000000880000000000
0000000002D10000000000
000000000AEDC400000000
000000001A302D20000000
0000000000000940000000
0000000074003C10000000
000000003ADDB300000000
ENDCHAR
STARTCHAR Egrave
ENCODING 200
SWIDTH 677 0
DWIDTH 19 0
BBX 18 31 1 0
BITMAP
0000002C1D10000000
000000087690000000
00000001D1C3000000
00000000694B000000
000000000C2A400000
0000000004B2C00000
000000000000000000
000000000000000000
94B1D1DDDDDDDDDDD1
94B1D1DDDDDDDDDDD1
94B1D0000000000000
94B1D1DDDDDDDDDDD1
94B1D0000000000000
94B1D0000000000000
94B1D0000000000000
94B1D0000000000000
94B1D0000000000000
94B1D1DDDDDDDDD700
94B1D0000000000000
94B1D1DDDDDDDDD700
94B1D0000000000000
94B1D1DDDDDDDDD700
94B1D0000000000000
94B1D0000000000000
94B1D0000000000000
94B1D0000000000000
94B1D1DDDDDDDDDDD1
94B1D0000000000000
94B1D1DDDDDDDDDDD1
94B1D0000000000000
94B1D1DDDDDDDDDDD1
ENDCHAR
STARTCHAR Eacute
ENCODING 201
SWIDTH 677 0
DWIDTH 19 0
BBX 18 31 1 0
BITMAP
000000000694B00000
000000001D1C300000
000000008759000000
00000002C1D1000000
0000000A5770000000
0000003B2D10000000
000000000000000000
000000000000000000
94B1D1DDDDDDDDDDD1
94B1D1DDDDDDDDDDD1
94B1D0000000000000
94B1D1DDDDDDDDDDD1
94B1D0000000000000
94B1D0000000000000
94B1D0000000000000
94B1D0000000000000
94B1D0000000000000
94B1D1DDDDDDDDD700
94B1D0000000000000
94B1D1DDDDDDDDD700
94B1D0000000000000
94B1D1DDDDDDDDD700
94B1D0000000000000
94B1D0000000000000
94B1D0000000000000
94B1D0000000000000
94B1D1DDDDDDDDDDD1
94B1D0000000000000
94B1D1DDDDDDDDDDD1
94B1D0000000000000
94B1D1DDDDDDDDDDD1
ENDCHAR
STARTCHAR Ecircumflex
ENCODING 202
SWIDTH 677 0
DWIDTH 19 0
BBX 18 31 1 0
BITMAP
0000000883C0000000
0000004C1D37300000
000001D29722C10000
00000A65B0A56A0000
00005B2D201D2A5000
0002D1B50005B1D200
000000000000000000
000000000000000000
94B1D1DDDDDDDDDDD1
94B1D1DDDDDDDDDDD1
94B1D0000000000000
94B1D1DDDDDDDDDDD1
94B1D0000000000000
94B1D0000000000000
94B1D0000000000000
94B1D0000000000000
94B1D0000000000000
94B1D1DDDDDDDDD700
94B1D0000000000000
94B1D1DDDDDDDDD700
94B1D0000000000000
94B1D1DDDDDDDDD700
94B1D0000000000000
94B1D0000000000000
94B1D0000000000000
94B1D0000000000000
94B1D1DDDDDDDDDDD1
94B1D0000000000000
94B1D1DDDDDDDDDDD1
94B1D0000000000000
94B1D1DDDDDDDDDDD1
ENDCHAR
STARTCHAR Edieresis
ENCODING 203
SWIDTH 677 0
DWIDTH 19 0
BBX 18 31 1 0
BITMAP
00005CD800019DB300
0003C109700A703D10
00085001C00D000850
00085001C00D000850
0003C109700A703D10
00005CD800019DC300
000000000000000000
000000000000000000
94B1D1DDDDDDDDDDD1
94B1D1DDDDDDDDDDD1
94B1D0000000000000
94B1D1DDDDDDDDDDD1
94B1D0000000000000
94B1D0000000000000
94B1D0000000000000
94B1D0000000000000
94B1D0000000000000
94B1D1DDDDDDDDD700
94B1D0000000000000
94B1D1DDDDDDDDD700
94B1D0000000000000
94B1D1DDDDDDDDD700
94B1D0000000000000
94B1D0000000000000
94B1D0000000000000
94B1D0000000000000
94B1D1DDDDDDDDDDD1
94B1D0000000000000
94B1D1DDDDDDDDDDD1
94B1D0000000000000
94B1D1DDDDDDDDDDD1
ENDCHAR
STARTCHAR Igrave
ENCODING 204
SWIDTH 262 0
DWIDTH 7 0
BBX 8 31 -2 0
BITMAP
3B1D1000
0A577000
02C1D100
00875900
001D1C30
000694B0
00000000
00000000
00094B1D
00094B1D
00094B1D
00094B1D
00094B1D
00094B1D
00094B1D
00094B1D
00094B1D
00094B1D
00094B1D
00094B1D
00094B1D
00094B1D
00094B1D
00094B1D
00094B1D
00094B1D
00094B1D
00094B1D
00094B1D
00094B1D
00094B1D
ENDCHAR
STARTCHAR Iacute
ENCODING 205
SWIDTH 262 0
DWIDTH 7 0
BBX 8 31 1 0
BITMAP
0000B395
0005A3C0
000D2B40
00785A00
01D1C200
09678000
00000000
00000000
94B1D000
94B1D000
94B1D000
94B1D000
94B1D000
94B1D000
94B1D000
94B1D000
94B1D000
94B1D000
94B1D000
94B1D000
94B1D000
94B1D000
94B1D000
94B1D000
94B1D000
94B1D000
94B1D000
94B1D000
94B1D000
94B1D000
94B1D000
ENDCHAR
STARTCHAR Icircumflex
ENCODING 206
SWIDTH 262 0
DWIDTH 7 0
BBX 12 31 -3 0
BITMAP
0000B5690000
000793D19100
003C1C325B00
00C3880C2960
0974C004C1C3
4C1D2000883C
000000000000
000000000000
000094B1D000
000094B1D000
000094B1D000
000094B1D000
000094B1D000
000094B1D000
000094B1D000
000094B1D000
000094B1D000
000094B1D000
000094B1D000
000094B1D000
000094B1D000
000094B1D000
000094B1D000
000094B1D000
000094B1D000
000094B1D000
000094B1D000
000094B1D000
000094B1D000
000094B1D000
000094B1D000
ENDCHAR
STARTCHAR Idieresis
ENCODING 207
SWIDTH 262 0
DWIDTH 7 0
BBX 14 31 -3 0
BITMAP
07DC50002BDA20
6911C300C405C0
B1005803A000B2
B1005803A000B2
6911C300C405C0
08DC50002BDA20
00000000000000
00000000000000
000094B1D00000
000094B1D00000
000094B1D00000
000094B1D00000
000094B1D00000
000094B1D00000
000094B1D00000
000094B1D00000
000094B1D00000
000094B1D00000
000094B1D00000
000094B1D00000
000094B1D00000
000094B1D00000
000094B1D00000
000094B1D00000
000094B1D00000
000094B1D00000
000094B1D00000
000094B1D00000
000094B1D00000
000094B1D00000
000094B1D00000
ENDCHAR
STARTCHAR Eth
ENCODING 208
SWIDTH 856 0
DWIDTH 24 0
BBX 24 23 0 0
BITMAP
003A57859DDDDC9510000000
003A57859DDDDCCBD7000000
003A57850000026CB9C20000
003A57859DDDCA516D7D2000
003A57850000139D43D6C100
003A578500000002C55B7800
003A5785000000001D2A5D10
003A57850000000004A3B760
000000000000000000D1D3B0
9DDDDDDDDDD6000000A4B3D0
0000000000000000008694C0
9DDDDDDDDDD60000008694B2
000000000000000000A4B3C0
9DDDDDDDDDD6000000D1D0D0
000000000000000004A3B2B0
003A5785000000001D2A5770
003A578500000002C55B1D10
003A57850000138D43D17800
003A57859DDDCA516D34C100
003A57850000026CA15D2000
003A57859DDDDB8318C20000
003A578500000149D7000000
003A57859DDDDC9510000000
ENDCHAR
STARTCHAR Ntilde
ENCODING 209
SWIDTH 796 0
DWIDTH 22 0
BBX 20 29 1 0
BITMAP
0000019DC30000550000
000009802C4000940000
00000D0002C504D00000
00001800002BDB200000
00000000000000000000
00000000000000000000
94B1D0000000000A3C1D
94B1D0100000000A3C1D
94B1D1900000000A3C1D
94B1D0B50000000A3C1D
94B1D02D1000000A3C1D
94B1D165A000000A3C1D
94B1D0C2A600000A3C1D
94B1D03C1D20000A3C1D
94B1D14874B0000A3C1D
94B1D1C1C397000A3C1D
94B1D0693C1C300A3C1D
94B1D00B5783C00A3C1D
94B1D002D1B4880A3C1D
94B1D0005A2D1C3A3C1D
94B1D0000A66A25A3C1D
94B1D00001D2A50A3C1D
94B1D000004B1D1A3C1D
94B1D0000009755A3C1D
94B1D0000001C31A3C1D
94B1D00000003C0A3C1D
94B1D0000000085A3C1D
94B1D0000000002A3C1D
94B1D0000000000A3C1D
ENDCHAR
STARTCHAR Ograve
ENCODING 210
SWIDTH 894 0
DWIDTH 25 0
BBX 25 31 0 0
BITMAP
00000001D1C200000000000000
00000000775A00000000000000
000000001D1B30000000000000
000000000593B0000000000000
0000000000C3A5000000000000
00000000004B2D000000000000
00000000000000000000000000
00000000000000000000000000
0000000159CDDDC95100000000
0000007DBBCDDDCBBD70000000
00002CABC6200026BBAC200000
0002D7D516BDDDB715D7D20000
001C6D34D9310138D53D6C1000
0087C46C200000002C64C78000
01D593C10000000001C395C200
076B2B4000000000003B2B6700
0B2C1C0000000000000C2C2C00
0D3A4800000000000008593C00
1C486600000000000006784B10
2B486600000000000006784A20
1C3A4800000000000008593B10
0D1C1C0000000000000C2C1C00
0B2B2A4000000000003B2B1C00
076593C10000000001C3956700
01D0C46C200000001B64C0C200
00872D34D8310138D53D268000
001C43D517BDDDB715D33C1000
0002D419B6200026BA24D20000
00002C8127BDDDB7218C200000
0000007D841000148D70000000
0000000159CDDDCA5100000000
ENDCHAR
STARTCHAR Oacute
ENCODING 211
SWIDTH 894 0
DWIDTH 25 0
BBX 25 31 0 0
BITMAP
00000000000004A2C000000000
0000000000000C2A4000000000
000000000000684B0000000000
000000000001D1C30000000000
00000000000876900000000000
00000000002C1D100000000000
00000000000000000000000000
00000000000000000000000000
0000000159CDDDC95100000000
0000007DBBCDDDCBBD70000000
00002CABC6200026BBAC200000
0002D7D516BDDDB715D7D20000
001C6D34D9310138D53D6C1000
0087C46C200000002C64C78000
01D593C10000000001C395C200
076B2B4000000000003B2B6700
0B2C1C0000000000000C2C2C00
0D3A4800000000000008593C00
1C486600000000000006784B10
2B486600000000000006784A20
1C3A4800000000000008593B10
0D1C1C0000000000000C2C1C00
0B2B2A4000000000003B2B1C00
076593C10000000001C3956700
01D0C46C200000001B64C0C200
00872D34D8310138D53D268000
001C43D517BDDDB715D33C1000
0002D419B6200026BA24D20000
00002C8127BDDDB7218C200000
0000007D841000148D70000000
0000000159CDDDCA5100000000
ENDCHAR
STARTCHAR Ocircumflex
ENCODING 212
SWIDTH 894 0
DWIDTH 25 0
BBX 25 31 0 0
BITMAP
0000000001D397000000000000
000000000974B0A00000000000
000000005B1D22780000000000
00000001D2B51D1B4000000000
0000000B56A006A2D100000000
0000006A2D1000A65B00000000
00000000000000000000000000
00000000000000000000000000
0000000159CDDDC95100000000
0000007DBBCDDDCBBD70000000
00002CABC6200026BBAC200000
0002D7D516BDDDB715D7D20000
001C6D34D9310138D53D6C1000
0087C46C200000002C64C78000
01D593C10000000001C395C200
076B2B4000000000003B2B6700
0B2C1C0000000000000C2C2C00
0D3A4800000000000008593C00
1C486600000000000006784B10
2B486600000000000006784A20
1C3A4800000000000008593B10
0D1C1C0000000000000C2C1C00
0B2B2A4000000000003B2B1C00
076593C10000000001C3956700
01D0C46C200000001B64C0C200
00872D34D8310138D53D268000
001C43D517BDDDB715D33C1000
0002D419B6200026BA24D20000
00002C8127BDDDB7218C200000
0000007D841000148D70000000
0000000159CDDDCA5100000000
ENDCHAR
STARTCHAR Otilde
ENCODING 213
SWIDTH 894 0
DWIDTH 25 0
BBX 25 29 0 0
BITMAP
000000005CD700001900000000
00000003C20990004A00000000
0000000940009911C400000000
00000009100008DC6000000000
00000000000000000000000000
00000000000000000000000000
0000000159CDDDC95100000000
0000007DBBCDDDCBBD70000000
00002CABC6200026BBAC200000
0002D7D516BDDDB715D7D20000
001C6D34D9310138D53D6C1000
0087C46C200000002C64C78000
01D593C10000000001C395C200
076B2B4000000000003B2B6700
0B2C1C0000000000000C2C2C00
0D3A4800000000000008593C00
1C486600000000000006784B10
2B486600000000000006784A20
1C3A4800000000000008593B10
0D1C1C0000000000000C2C1C00
0B2B2A4000000000003B2B1C00
076593C10000000001C3956700
01D0C46C200000001B64C0C200
00872D34D8310138D53D268000
001C43D517BDDDB715D33C1000
0002D419B6200026BA24D20000
00002C8127BDDDB7218C200000
0000007D841000148D70000000
0000000159CDDDCA5100000000
ENDCHAR
STARTCHAR Odieresis
ENCODING 214
SWIDTH 894 0
DWIDTH 25 0
BBX 25 31 0 0
BITMAP
00000019DC40003CD910000000
0000008802C201D307A0000000
000000C00076058000D0000000
000000C00076058000D0000000
0000009802D201D307A0000000
00000019DC40003CD910000000
00000000000000000000000000
00000000000000000000000000
0000000159CDDDC95100000000
0000007DBBCDDDCBBD70000000
00002CABC6200026BBAC200000
0002D7D516BDDDB715D7D20000
001C6D34D9310138D53D6C1000
0087C46C200000002C64C78000
01D593C10000000001C395C200
076B2B4000000000003B2B6700
0B2C1C0000000000000C2C2C00
0D3A4800000000000008593C00
1C486600000000000006784B10
2B486600000000000006784A20
1C3A4800000000000008593B10
0D1C1C0000000000000C2C1C00
0B2B2A4000000000003B2B1C00
076593C10000000001C3956700
01D0C46C200000001B64C0C200
00872D34D8310138D53D268000
001C43D517BDDDB715D33C1000
0002D419B6200026BA24D20000
00002C8127BDDDB7218C200000
0000007D841000148D70000000
0000000159CDDDCA5100000000
ENDCHAR
STARTCHAR multiply
ENCODING 215
SWIDTH 370 0
DWIDTH 10 0
BBX 9 9 1 1
BITMAP
0220001000
13D20A7000
9631A82A00
191A82D300
00A82D3000
0A82D36200
782D333C10
02D30B6100
0020015000
ENDCHAR
STARTCHAR Oslash
ENCODING 216
SWIDTH 894 0
DWIDTH 25 0
BBX 25 23 0 0
BITMAP
000000015ACDDCB95048300000
0000017DBBCDDDB701D4D25000
00002C9BC62000350A6C4A5000
0003D7D516BDDD905A786A0000
001D5D34D9310012D4C2C13000
0096C46C2000000B5C3C41C000
02C593C1000000799778349500
086B2B40000003C5B3C13B3A00
0C2C1C0000001C4D2C382D1D00
0D3A4800030097B597075A3B10
1B4866002D14B695B006785A20
2B496600B41D4D2D2006785A20
1C3A580790A6C4130008593B10
0D1D183C16A88000000C2C1D00
0A3B31C32D5C0000003B2B3B00
05943880C5D2000001C3957600
00C13C088A6000001B64C1D100
0031C23C6B100138D52D287000
000961C4D19DDDB715D35B0000
005B097B45300026BA25C10000
00525B7907BDDDB7319B100000
0001D4C1961000149D60000000
0000263059CDDDC95100000000
ENDCHAR
STARTCHAR Ugrave
ENCODING 217
SWIDTH 702 0
DWIDTH 20 0
BBX 18 31 1 0
BITMAP
0002C1D10000000000
000087690000000000
00001D1C3000000000
00000694B000000000
000000C2A400000000
0000004B2C00000000
000000000000000000
000000000000000000
94B1D0000000487694
94B1D0000000487694
94B1D0000000487694
94B1D0000000487694
94B1D0000000487694
94B1D0000000487694
94B1D0000000487694
94B1D0000000487694
94B1D0000000487694
94B1D0000000487694
94B1D0000000487694
94B1D0000000487694
94B1D0000000487694
94B1D0000000487694
94B2D0000000587694
8593B20000008694A3
676769000001D1C1C1
2C1D1B82003B64A3B0
0A46B17CDDA43D2950
02D17C610028D35B00
005C228CDDB616C100
0003D8300014AB1000
000016BDDDDA400000
ENDCHAR
STARTCHAR Uacute
ENCODING 218
SWIDTH 702 0
DWIDTH 20 0
BBX 18 31 1 0
BITMAP
000000000087590000
0000000002C1D10000
000000000A57700000
000000003B2D100000
00000000C395000000
00000005A3C0000000
000000000000000000
000000000000000000
94B1D0000000487694
94B1D0000000487694
94B1D0000000487694
94B1D0000000487694
94B1D0000000487694
94B1D0000000487694
94B1D0000000487694
94B1D0000000487694
94B1D0000000487694
94B1D0000000487694
94B1D0000000487694
94B1D0000000487694
94B1D0000000487694
94B1D0000000487694
94B2D0000000587694
8593B20000008694A3
676769000001D1C1C1
2C1D1B82003B64A3B0
0A46B17CDDA43D2950
02D17C610028D35B00
005C228CDDB616C100
0003D8300014AB1000
000016BDDDDA400000
ENDCHAR
STARTCHAR Ucircumflex
ENCODING 219
SWIDTH 702 0
DWIDTH 20 0
BBX 18 31 1 0
BITMAP
000000974C00000000
000005B1D283000000
00001D2A623C100000
0000B56A0B47900000
0006A2D102D1B50000
002D1C40006A2D1000
000000000000000000
000000000000000000
94B1D0000000487694
94B1D0000000487694
94B1D0000000487694
94B1D0000000487694
94B1D0000000487694
94B1D0000000487694
94B1D0000000487694
94B1D0000000487694
94B1D0000000487694
94B1D0000000487694
94B1D0000000487694
94B1D0000000487694
94B1D0000000487694
94B1D0000000487694
94B2D0000000587694
8593B20000008694A3
676769000001D1C1C1
2C1D1B82003B64A3B0
0A46B17CDDA43D2950
02D17C610028D35B00
005C228CDDB616C100
0003D8300014AB1000
000016BDDDDA400000
ENDCHAR
STARTCHAR Udieresis
ENCODING 220
SWIDTH 702 0
DWIDTH 20 0
BBX 18 31 1 0
BITMAP
0006CD70001ADB3000
004B11A600B603D100
0094002B01C0009400
0094002B01C0009400
004B11A600B603D100
0006CD70001ADB3000
000000000000000000
000000000000000000
94B1D0000000487694
94B1D0000000487694
94B1D0000000487694
94B1D0000000487694
94B1D0000000487694
94B1D0000000487694
94B1D0000000487694
94B1D0000000487694
94B1D0000000487694
94B1D0000000487694
94B1D0000000487694
94B1D0000000487694
94B1D0000000487694
94B1D0000000487694
94B2D0000000587694
8593B20000008694A3
676769000001D1C1C1
2C1D1B82003B64A3B0
0A46B17CDDA43D2950
02D17C610028D35B00
005C228CDDB616C100
0003D8300014AB1000
000016BDDDDA400000
ENDCHAR
STARTCHAR Yacute
ENCODING 221
SWIDTH 769 0
DWIDTH 22 0
BBX 22 31 0 0
BITMAP
000000000000C395000000
00000000000593C0000000
00000000000D2B30000000
0000000000775A00000000
0000000001D1C200000000
0000000009678000000000
0000000000000000000000
0000000000000000000000
693C1D200000000884B2D1
0B4875A00000003C1D2B40
02C1C2A5000000C3975A00
00784B2D10000793C1D100
000C396690002D1C3A6000
0003C1D2B400B4784B0000
0000875A2D16A2C1D20000
00001C2A57841B48700000
000004B2D1C3593C000000
000000A6693C11C3000000
0000001D1B397480000000
00000005A2C1D200000000
0000000020211100000000
0000000064829100000000
0000000075A3C100000000
0000000075A3C100000000
0000000075A3C100000000
0000000075A3C100000000
0000000075A3C100000000
0000000075A3C100000000
0000000075A3C100000000
0000000075A3C100000000
0000000075A3C100000000
ENDCHAR
STARTCHAR Thorn
ENCODING 222
SWIDTH 743 0
DWIDTH 21 0
BBX 20 23 1 0
BITMAP
94B1D000000000000000
94B1D000000000000000
94B1D000000000000000
94B1D000000000000000
94B1D1DDDDDDDC930000
94B1D0000000015C8000
94B1D1DDDDDDDC718900
94B1D0000000017C1B40
94B1D1DDDDDDDB3594A0
94B1D000000003D1C1D0
94B1D0000000008593C1
94B1D0000000008593C1
94B1D000000003D1C1D0
94B1D1DDDDDDDB35A4A0
94B1D0000000017C1B40
94B1D1DDDDDDDC818900
94B1D0000000014B8000
94B1D1DDDDDDDC930000
94B1D000000000000000
94B1D000000000000000
94B1D000000000000000
94B1D000000000000000
94B1D000000000000000
ENDCHAR
STARTCHAR germandbls
ENCODING 223
SWIDTH 424 0
DWIDTH 12 0
BBX 10 12 1 0
BITMAP
04CDDDEA10
4C200006B0
A37DDDC2B3
C0D0005875
C0C0005876
C0C05DEDC3
C0C00002B5
C0C05DDA1C
C0C0000C2D
C0C0BDDA1C
C0C00001A6
C0C0BDDD60
ENDCHAR
STARTCHAR agrave
ENCODING 224
SWIDTH 414 0
DWIDTH 12 0
BBX 12 17 0 0
BITMAP
0000C2000000
00005A000000
00000B300000
000000000000
000000000000
0000C2D60000
0002B3DB0000
0007686D1000
000C1D686000
002B3DB2B000
008686D2C200
00C1D2877700
03B3C03C2C00
0859EDDF2C20
0D1D20087770
3A4FDDDDD2C0
85950000C3B2
ENDCHAR
STARTCHAR aacute
ENCODING 225
SWIDTH 414 0
DWIDTH 12 0
BBX 12 17 0 0
BITMAP
0000000C2000
000000690000
000001D10000
000000000000
000000000000
0000C2D60000
0002B3DB0000
0007686D1000
000C1D686000
002B3DB2B000
008686D2C200
00C1D2877700
03B3C03C2C00
0859EDDF2C20
0D1D20087770
3A4FDDDDD2C0
85950000C3B2
ENDCHAR
STARTCHAR acircumflex
ENCODING 226
SWIDTH 414 0
DWIDTH 12 0
BBX 12 17 0 0
BITMAP
00003C100000
0001D2750000
000B501D2000
000000000000
000000000000
0000C2D60000
0002B3DB0000
0007686D1000
000C1D686000
002B3DB2B000
008686D2C200
00C1D2877700
03B3C03C2C00
0859EDDF2C20
0D1D20087770
3A4FDDDDD2C0
85950000C3B2
ENDCHAR
STARTCHAR atilde
ENCODING 227
SWIDTH 414 0
DWIDTH 12 0
BBX 12 16 0 0
BITMAP
0009DA21A000
003804CD7000
000000000000
000000000000
0000C2D60000
0002B3DB0000
0007686D1000
000C1D686000
002B3DB2B000
008686D2C200
00C1D2877700
03B3C03C2C00
0859EDDF2C20
0D1D20087770
3A4FDDDDD2C0
85950000C3B2
ENDCHAR
STARTCHAR adieresis
ENCODING 228
SWIDTH 414 0
DWIDTH 12 0
BBX 12 16 0 0
BITMAP
0007C13D4000
0008D13E5000
000000000000
000000000000
0000C2D60000
0002B3DB0000
0007686D1000
000C1D686000
002B3DB2B000
008686D2C200
00C1D2877700
03B3C03C2C00
0859EDDF2C20
0D1D20087770
3A4FDDDDD2C0
85950000C3B2
ENDCHAR
STARTCHAR aring
ENCODING 229
SWIDTH 414 0
DWIDTH 12 0
BBX 12 16 0 0
BITMAP
00003DC20000
000093660000
00004DC20000
000000000000
0000C2D60000
0002B3DB0000
0007686D1000
000C1D686000
002B3DB2B000
008686D2C200
00C1D2877700
03B3C03C2C00
0859EDDF2C20
0D1D20087770
3A4FDDDDD2C0
85950000C3B2
ENDCHAR
STARTCHAR ae
ENCODING 230
SWIDTH 593 0
DWIDTH 17 0
BBX 17 12 0 0
BITMAP
000000C1CEDDDDDD10
00000674E800000000
00000D1C6EDDDDDD10
0000774D1B00000000
0001D1CF0C00000000
000775CC1DDDDDD300
001D1C4A3C00000000
00775A095ADDDDD300
01D1C2076940000000
0775EDDE87EDDDDD10
1D1C1003A570000000
77690002B4EDDDDD10
ENDCHAR
STARTCHAR ccedilla
ENCODING 231
SWIDTH 446 0
DWIDTH 12 0
BBX 12 17 0 -5
BITMAP
00017CDDB500
003C710029B1
01C23ADD9265
0955C4004B00
0D1D10000000
1B4900000000
1B4900000000
0D1D10000000
0955C4004B00
01C24ADD9265
003C710029B1
00017CFDB600
000005A00000
00001EDC3000
00000403B000
00002204A000
00003BDB2000
ENDCHAR
STARTCHAR egrave
ENCODING 232
SWIDTH 363 0
DWIDTH 10 0
BBX 9 17 1 0
BITMAP
001D100000
0007700000
0001D10000
0000000000
0000000000
C0FDDDDD90
C0C0000000
C0FDDDDD90
C0C0000000
C0C0000000
C0FDDDDA00
C0C0000000
C0FDDDDA00
C0C0000000
C0FDDDDD90
C0C0000000
C0FDDDDD90
ENDCHAR
STARTCHAR eacute
ENCODING 233
SWIDTH 363 0
DWIDTH 10 0
BBX 9 17 1 0
BITMAP
000001D100
0000087000
00002C0000
0000000000
0000000000
C0FDDDDD90
C0C0000000
C0FDDDDD90
C0C0000000
C0C0000000
C0FDDDDA00
C0C0000000
C0FDDDDA00
C0C0000000
C0FDDDDD90
C0C0000000
C0FDDDDD90
ENDCHAR
STARTCHAR ecircumflex
ENCODING 234
SWIDTH 363 0
DWIDTH 10 0
BBX 9 17 1 0
BITMAP
0005B00000
002D184000
00C402D100
0000000000
0000000000
C0FDDDDD90
C0C0000000
C0FDDDDD90
C0C0000000
C0C0000000
C0FDDDDA00
C0C0000000
C0FDDDDA00
C0C0000000
C0FDDDDD90
C0C0000000
C0FDDDDD90
ENDCHAR
STARTCHAR edieresis
ENCODING 235
SWIDTH 363 0
DWIDTH 10 0
BBX 9 16 1 0
BITMAP
008C03D300
009D04E400
0000000000
0000000000
C0FDDDDD90
C0C0000000
C0FDDDDD90
C0C0000000
C0C0000000
C0FDDDDA00
C0C0000000
C0FDDDDA00
C0C0000000
C0FDDDDD90
C0C0000000
C0FDDDDD90
ENDCHAR
STARTCHAR igrave
ENCODING 236
SWIDTH 176 0
DWIDTH 5 0
BBX 4 17 0 0
BITMAP
6800
0C20
04A0
0000
0000
0C0C
0C0C
0C0C
0C0C
0C0C
0C0C
0C0C
0C0C
0C0C
0C0C
0C0C
0C0C
ENDCHAR
STARTCHAR iacute
ENCODING 237
SWIDTH 176 0
DWIDTH 5 0
BBX 4 17 1 0
BITMAP
005A
00C2
0780
0000
0000
C0C0
C0C0
C0C0
C0C0
C0C0
C0C0
C0C0
C0C0
C0C0
C0C0
C0C0
C0C0
ENDCHAR
STARTCHAR icircumflex
ENCODING 238
SWIDTH 176 0
DWIDTH 5 0
BBX 6 17 -1 0
BITMAP
00A600
06A0B1
3C1079
000000
000000
00C0C0
00C0C0
00C0C0
00C0C0
00C0C0
00C0C0
00C0C0
00C0C0
00C0C0
00C0C0
00C0C0
00C0C0
ENDCHAR
STARTCHAR idieresis
ENCODING 239
SWIDTH 176 0
DWIDTH 5 0
BBX 6 16 -1 0
BITMAP
1C708C
1D809D
000000
000000
00C0C0
00C0C0
00C0C0
00C0C0
00C0C0
00C0C0
00C0C0
00C0C0
00C0C0
00C0C0
00C0C0
00C0C0
ENDCHAR
STARTCHAR eth
ENCODING 240
SWIDTH 455 0
DWIDTH 13 0
BBX 12 12 0 0
BITMAP
0B1DDDDC6000
0B1D00028C20
0B1DDDDA34C0
0B1D0015D385
000000003B2B
000000000D0C
BDDDD5000D0C
000000003B2B
0B1D0015D385
0B1DDDDA34C0
0B1D00028C20
0B1DDDDC6000
ENDCHAR
STARTCHAR ntilde
ENCODING 241
SWIDTH 444 0
DWIDTH 12 0
BBX 11 16 1 0
BITMAP
006DC5074000
00A12ADA0000
000000000000
000000000000
C0F300067850
C0EC00067850
C0C970067850
C0D1D3067850
C0F84C067850
C0CC38767850
C0C2C1C87850
C0C0793F7850
C0C00B487850
C0C002C67850
C0C0006E7850
C0C0000B7850
ENDCHAR
STARTCHAR ograve
ENCODING 242
SWIDTH 494 0
DWIDTH 14 0
BBX 13 17 0 0
BITMAP
00001D10000000
00000690000000
000000C2000000
00000000000000
00000000000000
00017CDDC60000
003C710028C200
01C23ADDA24C00
0955C4015D3860
0D1D100003C1C0
1B49000000C1C0
1B49000000C1C0
0D1D100003C1B0
0955C4015D3860
01C24ADDA24C00
003C710028C200
00017CDDC60000
ENDCHAR
STARTCHAR oacute
ENCODING 243
SWIDTH 494 0
DWIDTH 14 0
BBX 13 17 0 0
BITMAP
00000003C00000
0000000B400000
0000004A000000
00000000000000
00000000000000
00017CDDC60000
003C710028C200
01C23ADDA24C00
0955C4015D3860
0D1D100003C1C0
1B49000000C1C0
1B49000000C1C0
0D1D100003C1B0
0955C4015D3860
01C24ADDA24C00
003C710028C200
00017CDDC60000
ENDCHAR
STARTCHAR ocircumflex
ENCODING 244
SWIDTH 494 0
DWIDTH 14 0
BBX 13 17 0 0
BITMAP
000003C1000000
00001D27500000
0000B501D20000
00000000000000
00000000000000
00017CDDC60000
003C710028C200
01C23ADDA24C00
0955C4015D3860
0D1D100003C1C0
1B49000000C1C0
1B49000000C1C0
0D1D100003C1B0
0955C4015D3860
01C24ADDA24C00
003C710028C200
00017CDDC60000
ENDCHAR
STARTCHAR otilde
ENCODING 245
SWIDTH 494 0
DWIDTH 14 0
BBX 13 16 0 0
BITMAP
00009DA31A0000
0003804CD70000
00000000000000
00000000000000
00017CDDC60000
003C710028C200
01C23ADDA24C00
0955C4015D3860
0D1D100003C1C0
1B49000000C1C0
1B49000000C1C0
0D1D100003C1B0
0955C4015D3860
01C24ADDA24C00
003C710028C200
00017CDDC60000
ENDCHAR
STARTCHAR odieresis
ENCODING 246
SWIDTH 494 0
DWIDTH 14 0
BBX 13 16 0 0
BITMAP
00007C12D40000
00008D13E50000
00000000000000
00000000000000
00017CDDC60000
003C710028C200
01C23ADDA24C00
0955C4015D3860
0D1D100003C1C0
1B49000000C1C0
1B49000000C1C0
0D1D100003C1B0
0955C4015D3860
01C24ADDA24C00
003C710028C200
00017CDDC60000
ENDCHAR
STARTCHAR divide
ENCODING 247
SWIDTH 418 0
DWIDTH 12 0
BBX 10 10 1 0
BITMAP
0003CB1000
0003CB1000
0000000000
CDDDDDDDD8
0000000000
CDDDDDDDD8
0000000000
0002CA0000
00056A2000
0001CA0000
ENDCHAR
STARTCHAR oslash
ENCODING 248
SWIDTH 494 0
DWIDTH 14 0
BBX 13 12 0 0
BITMAP
00017CDDC31A00
003D710031C500
02C23ADC1A7200
0955C400890950
0D1D1006B083B0
2B49004C10C1D0
2C4903D200C1C0
0D171D3003C1C0
0851C4015D3770
010A63DDA34C10
0088220028C200
01906CDDC60000
ENDCHAR
STARTCHAR ugrave
ENCODING 249
SWIDTH 400 0
DWIDTH 11 0
BBX 10 17 1 0
BITMAP
004B000000
000B400000
0003C00000
0000000000
0000000000
C0C00094C1
C0C00094C1
C0C00094C1
C0C00094C1
C0C00094C1
C0C00094C1
C0C00094C1
C0D000A3C1
B2B503C0D0
682ADB3590
0B81017C10
007DDD9100
ENDCHAR
STARTCHAR uacute
ENCODING 250
SWIDTH 400 0
DWIDTH 11 0
BBX 10 17 1 0
BITMAP
0000078000
00001D1000
0000960000
0000000000
0000000000
C0C00094C1
C0C00094C1
C0C00094C1
C0C00094C1
C0C00094C1
C0C00094C1
C0C00094C1
C0D000A3C1
B2B503C0D0
682ADB3590
0B81017C10
007DDD9100
ENDCHAR
STARTCHAR ucircumflex
ENCODING 251
SWIDTH 400 0
DWIDTH 11 0
BBX 10 17 1 0
BITMAP
0008800000
004B0B1000
02D205B000
0000000000
0000000000
C0C00094C1
C0C00094C1
C0C00094C1
C0C00094C1
C0C00094C1
C0C00094C1
C0C00094C1
C0D000A3C1
B2B503C0D0
682ADB3590
0B81017C10
007DDD9100
ENDCHAR
STARTCHAR udieresis
ENCODING 252
SWIDTH 400 0
DWIDTH 11 0
BBX 10 16 1 0
BITMAP
00B806C100
00CA07E100
0000000000
0000000000
C0C00094C1
C0C00094C1
C0C00094C1
C0C00094C1
C0C00094C1
C0C00094C1
C0C00094C1
C0D000A3C1
B2B503C0D0
682ADB3590
0B81017C10
007DDD9100
ENDCHAR
STARTCHAR yacute
ENCODING 253
SWIDTH 422 0
DWIDTH 12 0
BBX 12 17 0 0
BITMAP
0000003C0000
000000B40000
000004A00000
000000000000
000000000000
692D0002D1C3
0B48800B5790
02D1C35B2D10
00884CD2B500
000C3995A000
0004C1DD2000
000041230000
000076940000
000076940000
000076940000
000076940000
000076940000
ENDCHAR
STARTCHAR thorn
ENCODING 254
SWIDTH 412 0
DWIDTH 12 0
BBX 10 12 1 0
BITMAP
C0C0000000
C0C0000000
C0FDDDDB20
C0C00005D1
C0FDDDD477
C0C0002C39
C0C0002B39
C0FDDDD477
C0C00004D1
C0FDDDDB20
C0C0000000
C0C0000000
ENDCHAR
STARTCHAR ydieresis
ENCODING 255
SWIDTH 422 0
DWIDTH 12 0
BBX 12 16 0 0
BITMAP
0007C13D4000
0008D13E5000
000000000000
000000000000
692D0002D1C3
0B48800B5790
02D1C35B2D10
00884CD2B500
000C3995A000
0004C1DD2000
000041230000
000076940000
000076940000
000076940000
000076940000
000076940000
ENDCHAR
STARTCHAR Edotaccent
ENCODING 278
SWIDTH 677 0
DWIDTH 19 0
BBX 18 28 1 0
BITMAP
000000001B90000000
000000005FF1000000
000000001DB0000000
000000000000000000
000000000000000000
94B1D1DDDDDDDDDDD1
94B1D1DDDDDDDDDDD1
94B1D0000000000000
94B1D1DDDDDDDDDDD1
94B1D0000000000000
94B1D0000000000000
94B1D0000000000000
94B1D0000000000000
94B1D0000000000000
94B1D1DDDDDDDDD700
94B1D0000000000000
94B1D1DDDDDDDDD700
94B1D0000000000000
94B1D1DDDDDDDDD700
94B1D0000000000000
94B1D0000000000000
94B1D0000000000000
94B1D0000000000000
94B1D1DDDDDDDDDDD1
94B1D0000000000000
94B1D1DDDDDDDDDDD1
94B1D0000000000000
94B1D1DDDDDDDDDDD1
ENDCHAR
STARTCHAR edotaccent
ENCODING 279
SWIDTH 363 0
DWIDTH 10 0
BBX 9 17 1 0
BITMAP
0001B80000
0006FF0000
0002DA0000
0000000000
0000000000
C0FDDDDD90
C0C0000000
C0FDDDDD90
C0C0000000
C0C0000000
C0FDDDDA00
C0C0000000
C0FDDDDA00
C0C0000000
C0FDDDDD90
C0C0000000
C0FDDDDD90
ENDCHAR
STARTCHAR dotlessi
ENCODING 305
SWIDTH 176 0
DWIDTH 5 0
BBX 3 12 1 0
BITMAP
C0C0
C0C0
C0C0
C0C0
C0C0
C0C0
C0C0
C0C0
C0C0
C0C0
C0C0
C0C0
ENDCHAR
STARTCHAR OE
ENCODING 338
SWIDTH 1221 0
DWIDTH 34 0
BBX 34 23 0 0
BITMAP
0000000159CDDDD8000000BDDDDDDDDDD5
0000007DBCCDDDD8000000BDDDDDDDDDD5
00002C9BC6200000000000000000000000
0002D7D616BDDDD8000000BDDDDDDDDDD5
001C5D34D8310000000000000000000000
0087B46C20000000000000000000000000
02D693C100000000000000000000000000
076B2A4000000000000000000000000000
0C3D1C0000000000000000000000000000
0D3A490000000000000000BDDDDDDDDA00
1C49670000000000000000000000000000
2B49670000000000000000BDDDDDDDDA00
1C3A490000000000000000000000000000
0D1D1C0000000000000000BDDDDDDDDA00
0C2B2A4000000000000000000000000000
076693C100000000000000000000000000
02D1C46C20000000000000000000000000
00872D34D8310000000000000000000000
001C43D616BCDDD8000000BDDDDDDDDDD5
0002D41AC6200000000000000000000000
00002C8138BDDDD8000000BDDDDDDDDDD5
0000017D94100000000000000000000000
0000000159CDDDD8000000BDDDDDDDDDD5
ENDCHAR
STARTCHAR oe
ENCODING 339
SWIDTH 637 0
DWIDTH 18 0
BBX 18 12 0 0
BITMAP
00028DDDA007DDDDD4
004D61000000000000
02C15BDDA007DDDDD4
0A47B3000000000000
0D1D10000000000000
2B4900000007DDDD60
2B4900000000000000
0D1D10000007DDDD60
0A47B3000000000000
02C15BDDA007DDDDD4
004C61000000000000
00028DDDA007DDDDD4
ENDCHAR
STARTCHAR Wcircumflex
ENCODING 372
SWIDTH 972 0
DWIDTH 27 0
BBX 27 31 0 0
BITMAP
00000000000C4790000000000000
0000000000883C0A100000000000
0000000004C1C326A00000000000
000000001D2970D2A50000000000
00000000A65B005B1D2000000000
00000005B2D2000974C000000000
0000000000000000000000000000
0000000000000000000000000000
5867850000049587600002B49580
1C2A49000008594A300006776940
0C1D1C00000B2C1D00000A3B2C10
094A3B10000C1B3A00000D1D1C00
058668500049587600002B495800
01C3A490008594B2500067769400
00C1D1C000B1C1D0C000A3B2C100
0094A3C100C1B3A0B200D0D1C000
00587685049577617602B3958000
002B3A4908594B273A0677694000
000C1D1C0B1C1D0C1D0A3B2C1000
00094B2C1A1B3A094B290D2B0000
0005776853577625876239580000
0002B3A58094B291C3A076940000
0000D1D1C0C1D0B2C1D0B2C10000
000093B2C193A08694B282B00000
000067769427604A587615800000
00002B39580B200D1C3A09400000
00000D1D1C0D000B2C1D0C000000
00000A3B2C170008694B27000000
0000067769410004958761000000
000002B495800000D1C3A0000000
000000D1C1C00000B2C1D0000000
ENDCHAR
STARTCHAR wcircumflex
ENCODING 373
SWIDTH 521 0
DWIDTH 15 0
BBX 15 17 0 0
BITMAP
000000C400000000
00000972A0000000
00005B0097000000
0000000000000000
0000000000000000
94A300D1D0094A30
587602B4B00C1D00
2B3A0677E01C3A00
0C1D0A3BC3587700
094B2D1D6794A300
05878B4C2BC1D000
02B3E77F1DC3B000
00C1E3BB5A877000
0094B3D5967A3000
006779A1C2BD0000
002B3F60C1DB0000
000D1E2085A70000
ENDCHAR
STARTCHAR Ycircumflex
ENCODING 374
SWIDTH 769 0
DWIDTH 22 0
BBX 22 31 0 0
BITMAP
00000000A65B0000000000
00000005B2D28200000000
0000002D1B524C00000000
000000B5790B3880000000
00000793D102D1C4000000
00003C1C30006A2D100000
0000000000000000000000
0000000000000000000000
693C1D200000000884B2D1
0B4875A00000003C1D2B40
02C1C2A5000000C3975A00
00784B2D10000793C1D100
000C396690002D1C3A6000
0003C1D2B400B4784B0000
0000875A2D16A2C1D20000
00001C2A57841B48700000
000004B2D1C3593C000000
000000A6693C11C3000000
0000001D1B397480000000
00000005A2C1D200000000
0000000020211100000000
0000000064829100000000
0000000075A3C100000000
0000000075A3C100000000
0000000075A3C100000000
0000000075A3C100000000
0000000075A3C100000000
0000000075A3C100000000
0000000075A3C100000000
0000000075A3C100000000
0000000075A3C100000000
ENDCHAR
STARTCHAR ycircumflex
ENCODING 375
SWIDTH 422 0
DWIDTH 12 0
BBX 12 17 0 0
BITMAP
00003C100000
0001D2750000
000B501D2000
000000000000
000000000000
692D0002D1C3
0B48800B5790
02D1C35B2D10
00884CD2B500
000C3995A000
0004C1DD2000
000041230000
000076940000
000076940000
000076940000
000076940000
000076940000
ENDCHAR
STARTCHAR Ydieresis
ENCODING 376
SWIDTH 769 0
DWIDTH 22 0
BBX 22 31 0 0
BITMAP
000006CC70001ADB200000
00004B11A500B504C00000
000093003A01C000930000
000093003A01C000930000
00005B11A500B504D00000
000006CD70001ADB300000
0000000000000000000000
0000000000000000000000
693C1D200000000884B2D1
0B4875A00000003C1D2B40
02C1C2A5000000C3975A00
00784B2D10000793C1D100
000C396690002D1C3A6000
0003C1D2B400B4784B0000
0000875A2D16A2C1D20000
00001C2A57841B48700000
000004B2D1C3593C000000
000000A6693C11C3000000
0000001D1B397480000000
00000005A2C1D200000000
0000000020211100000000
0000000064829100000000
0000000075A3C100000000
0000000075A3C100000000
0000000075A3C100000000
0000000075A3C100000000
0000000075A3C100000000
0000000075A3C100000000
0000000075A3C100000000
0000000075A3C100000000
0000000075A3C100000000
ENDCHAR
STARTCHAR circumflex
ENCODING 710
SWIDTH 298 0
DWIDTH 8 0
BBX 6 3 1 14
BITMAP
00B500
0791B0
4C0088
ENDCHAR
STARTCHAR dotaccent
ENCODING 729
SWIDTH 212 0
DWIDTH 6 0
BBX 4 3 1 14
BITMAP
0AA0
3FF2
1DC0
ENDCHAR
STARTCHAR ring
ENCODING 730
SWIDTH 212 0
DWIDTH 6 0
BBX 4 3 1 13
BITMAP
3CC2
8457
3CC2
ENDCHAR
STARTCHAR tilde
ENCODING 732
SWIDTH 329 0
DWIDTH 9 0
BBX 7 2 1 14
BITMAP
2BD81380
6507DC30
ENDCHAR
STARTCHAR gravecomb
ENCODING 768
SWIDTH 0 0
DWIDTH 0 0
BBX 3 3 1 14
BITMAP
5A00
0B30
03C0
ENDCHAR
STARTCHAR acutecomb
ENCODING 769
SWIDTH 0 0
DWIDTH 0 0
BBX 3 3 1 14
BITMAP
03B0
0B30
5A00
ENDCHAR
STARTCHAR uni0302
ENCODING 770
SWIDTH 0 0
DWIDTH 0 0
BBX 6 3 1 14
BITMAP
00B500
0791B0
4C0088
ENDCHAR
STARTCHAR tildecomb
ENCODING 771
SWIDTH 0 0
DWIDTH 0 0
BBX 7 2 1 14
BITMAP
2BD81380
6507DC30
ENDCHAR
STARTCHAR uni0307
ENCODING 775
SWIDTH 0 0
DWIDTH 0 0
BBX 4 3 1 14
BITMAP
0AA0
3FF2
1DC0
ENDCHAR
STARTCHAR uni0308
ENCODING 776
SWIDTH 0 0
DWIDTH 0 0
BBX 6 2 1 14
BITMAP
5D21D6
6E22E7
ENDCHAR
STARTCHAR uni030A
ENCODING 778
SWIDTH 0 0
DWIDTH 0 0
BBX 4 3 1 13
BITMAP
3CC2
8457
3CC2
ENDCHAR
STARTCHAR uni0327
ENCODING 807
SWIDTH 0 0
DWIDTH 0 0
BBX 5 6 1 -5
BITMAP
001000
04B000
0DDD40
0402C0
1303C0
3BDC30
ENDCHAR
STARTCHAR Wgrave
ENCODING 7808
SWIDTH 972 0
DWIDTH 27 0
BBX 27 31 0 0
BITMAP
0000000000693B00000000000000
00000000000C3A50000000000000
000000000004B2C0000000000000
000000000000A487000000000000
0000000000002C1D100000000000
0000000000000866900000000000
0000000000000000000000000000
0000000000000000000000000000
5867850000049587600002B49580
1C2A49000008594A300006776940
0C1D1C00000B2C1D00000A3B2C10
094A3B10000C1B3A00000D1D1C00
058668500049587600002B495800
01C3A490008594B2500067769400
00C1D1C000B1C1D0C000A3B2C100
0094A3C100C1B3A0B200D0D1C000
00587685049577617602B3958000
002B3A4908594B273A0677694000
000C1D1C0B1C1D0C1D0A3B2C1000
00094B2C1A1B3A094B290D2B0000
0005776853577625876239580000
0002B3A58094B291C3A076940000
0000D1D1C0C1D0B2C1D0B2C10000
000093B2C193A08694B282B00000
000067769427604A587615800000
00002B39580B200D1C3A09400000
00000D1D1C0D000B2C1D0C000000
00000A3B2C170008694B27000000
0000067769410004958761000000
000002B495800000D1C3A0000000
000000D1C1C00000B2C1D0000000
ENDCHAR
STARTCHAR wgrave
ENCODING 7809
SWIDTH 521 0
DWIDTH 15 0
BBX 15 17 0 0
BITMAP
000000B400000000
0000003C00000000
0000000960000000
0000000000000000
0000000000000000
94A300D1D0094A30
587602B4B00C1D00
2B3A0677E01C3A00
0C1D0A3BC3587700
094B2D1D6794A300
05878B4C2BC1D000
02B3E77F1DC3B000
00C1E3BB5A877000
0094B3D5967A3000
006779A1C2BD0000
002B3F60C1DB0000
000D1E2085A70000
ENDCHAR
STARTCHAR Wacute
ENCODING 7810
SWIDTH 972 0
DWIDTH 27 0
BBX 27 31 0 0
BITMAP
0000000000000A48700000000000
0000000000004B2C000000000000
000000000000C3A5000000000000
00000000000693B0000000000000
00000000001D1C30000000000000
0000000000775A00000000000000
0000000000000000000000000000
0000000000000000000000000000
5867850000049587600002B49580
1C2A49000008594A300006776940
0C1D1C00000B2C1D00000A3B2C10
094A3B10000C1B3A00000D1D1C00
058668500049587600002B495800
01C3A490008594B2500067769400
00C1D1C000B1C1D0C000A3B2C100
0094A3C100C1B3A0B200D0D1C000
00587685049577617602B3958000
002B3A4908594B273A0677694000
000C1D1C0B1C1D0C1D0A3B2C1000
00094B2C1A1B3A094B290D2B0000
0005776853577625876239580000
0002B3A58094B291C3A076940000
0000D1D1C0C1D0B2C1D0B2C10000
000093B2C193A08694B282B00000
000067769427604A587615800000
00002B39580B200D1C3A09400000
00000D1D1C0D000B2C1D0C000000
00000A3B2C170008694B27000000
0000067769410004958761000000
000002B495800000D1C3A0000000
000000D1C1C00000B2C1D0000000
ENDCHAR
STARTCHAR wacute
ENCODING 7811
SWIDTH 521 0
DWIDTH 15 0
BBX 15 17 0 0
BITMAP
0000000950000000
0000003C00000000
000000B400000000
0000000000000000
0000000000000000
94A300D1D0094A30
587602B4B00C1D00
2B3A0677E01C3A00
0C1D0A3BC3587700
094B2D1D6794A300
05878B4C2BC1D000
02B3E77F1DC3B000
00C1E3BB5A877000
0094B3D5967A3000
006779A1C2BD0000
002B3F60C1DB0000
000D1E2085A70000
ENDCHAR
STARTCHAR Wdieresis
ENCODING 7812
SWIDTH 972 0
DWIDTH 27 0
BBX 27 31 0 0
BITMAP
000000008DC50003BDA100000000
00000007902C301D305B00000000
0000000C10057049000C10000000
0000000C10057049000C10000000
00000007902C301D305B00000000
000000008DC50003BDA100000000
0000000000000000000000000000
0000000000000000000000000000
5867850000049587600002B49580
1C2A49000008594A300006776940
0C1D1C00000B2C1D00000A3B2C10
094A3B10000C1B3A00000D1D1C00
058668500049587600002B495800
01C3A490008594B2500067769400
00C1D1C000B1C1D0C000A3B2C100
0094A3C100C1B3A0B200D0D1C000
00587685049577617602B3958000
002B3A4908594B273A0677694000
000C1D1C0B1C1D0C1D0A3B2C1000
00094B2C1A1B3A094B290D2B0000
0005776853577625876239580000
0002B3A58094B291C3A076940000
0000D1D1C0C1D0B2C1D0B2C10000
000093B2C193A08694B282B00000
000067769427604A587615800000
00002B39580B200D1C3A09400000
00000D1D1C0D000B2C1D0C000000
00000A3B2C170008694B27000000
0000067769410004958761000000
000002B495800000D1C3A0000000
000000D1C1C00000B2C1D0000000
ENDCHAR
STARTCHAR wdieresis
ENCODING 7813
SWIDTH 521 0
DWIDTH 15 0
BBX 15 16 0 0
BITMAP
00002D50AA000000
00002E60BB000000
0000000000000000
0000000000000000
94A300D1D0094A30
587602B4B00C1D00
2B3A0677E01C3A00
0C1D0A3BC3587700
094B2D1D6794A300
05878B4C2BC1D000
02B3E77F1DC3B000
00C1E3BB5A877000
0094B3D5967A3000
006779A1C2BD0000
002B3F60C1DB0000
000D1E2085A70000
ENDCHAR
STARTCHAR uni1E9E
ENCODING 7838
SWIDTH 784 0
DWIDTH 22 0
BBX 20 23 1 0
BITMAP
94B1D1DDDDDDDDDDD800
94B1D1DDDDDDDDDDD800
94B1D000000000000000
94B1D1DDDDDDDDDDD800
94B1D000000000000000
94B1D0000003B2D1D100
94B1D000000B3A587000
94B1D00000593B2D0000
94B1D00000C2C3A50000
94B1D000077593B1B200
94B1D0001D1D2C323C20
94B1D0009577590B73C0
94B1D003C1D1D281B495
94B1D0000000005B2B3A
94B1D0000000000B2D0D
94B1D000000000093C1D
94B1D0000000000B2C0C
94B1D0000000005B1C2B
94B1D006DDDDDDA29677
94B1D00000000029A1C1
94B1D006DDDDDDC61A60
94B1D00000000005C700
94B1D006DDDDDDD93000
ENDCHAR
STARTCHAR Ygrave
ENCODING 7922
SWIDTH 769 0
DWIDTH 22 0
BBX 22 31 0 0
BITMAP
00000003B1D10000000000
00000000A5770000000000
000000002C1D1000000000
0000000008759000000000
0000000001D1C300000000
0000000000694B00000000
0000000000000000000000
0000000000000000000000
693C1D200000000884B2D1
0B4875A00000003C1D2B40
02C1C2A5000000C3975A00
00784B2D10000793C1D100
000C396690002D1C3A6000
0003C1D2B400B4784B0000
0000875A2D16A2C1D20000
00001C2A57841B48700000
000004B2D1C3593C000000
000000A6693C11C3000000
0000001D1B397480000000
00000005A2C1D200000000
0000000020211100000000
0000000064829100000000
0000000075A3C100000000
0000000075A3C100000000
0000000075A3C100000000
0000000075A3C100000000
0000000075A3C100000000
0000000075A3C100000000
0000000075A3C100000000
0000000075A3C100000000
0000000075A3C100000000
ENDCHAR
STARTCHAR ygrave
ENCODING 7923
SWIDTH 422 0
DWIDTH 12 0
BBX 12 17 0 0
BITMAP
00002C000000
000009600000
000001D10000
000000000000
000000000000
692D0002D1C3
0B48800B5790
02D1C35B2D10
00884CD2B500
000C3995A000
0004C1DD2000
000041230000
000076940000
000076940000
000076940000
000076940000
000076940000
ENDCHAR
STARTCHAR endash
ENCODING 8211
SWIDTH 507 0
DWIDTH 14 0
BBX 12 3 1 4
BITMAP
8DDDDDDDDDDA
000000000000
8DDDDDDDDDDA
ENDCHAR
STARTCHAR emdash
ENCODING 8212
SWIDTH 552 0
DWIDTH 15 0
BBX 14 3 1 4
BITMAP
8DDDDDDDDDDDD1
00000000000000
8DDDDDDDDDDDD1
ENDCHAR
STARTCHAR quoteleft
ENCODING 8216
SWIDTH 146 0
DWIDTH 4 0
BBX 4 4 0 8
BITMAP
4800
4800
4876
4876
ENDCHAR
STARTCHAR quoteright
ENCODING 8217
SWIDTH 146 0
DWIDTH 4 0
BBX 4 4 0 8
BITMAP
4876
4876
0076
0076
ENDCHAR
STARTCHAR quotesinglbase
ENCODING 8218
SWIDTH 146 0
DWIDTH 4 0
BBX 4 4 0 -4
BITMAP
4876
4876
0076
0076
ENDCHAR
STARTCHAR quotedblleft
ENCODING 8220
SWIDTH 297 0
DWIDTH 8 0
BBX 8 4 0 8
BITMAP
48001C00
48001C01
48761C39
48761C39
ENDCHAR
STARTCHAR quotedblright
ENCODING 8221
SWIDTH 297 0
DWIDTH 8 0
BBX 8 4 0 8
BITMAP
48761C39
48761C39
00760139
00760039
ENDCHAR
STARTCHAR quotedblbase
ENCODING 8222
SWIDTH 297 0
DWIDTH 8 0
BBX 8 4 0 -4
BITMAP
48761C39
48761C39
00760139
00760039
ENDCHAR
STARTCHAR bullet
ENCODING 8226
SWIDTH 302 0
DWIDTH 8 0
BBX 6 6 1 3
BITMAP
04CD91
3C2079
85000D
85000D
3C2079
04CD91
ENDCHAR
STARTCHAR ellipsis
ENCODING 8230
SWIDTH 528 0
DWIDTH 15 0
BBX 13 3 1 0
BITMAP
20200202002020
C0C00D2B00C3A0
C0C00D2B00C3A0
ENDCHAR
STARTCHAR guilsinglleft
ENCODING 8249
SWIDTH 178 0
DWIDTH 5 0
BBX 3 6 1 3
BITMAP
0170
4D50
4250
5270
8B10
0590
ENDCHAR
STARTCHAR guilsinglright
ENCODING 8250
SWIDTH 178 0
DWIDTH 5 0
BBX 3 6 1 3
BITMAP
7100
5D40
5240
7250
1B80
9500
ENDCHAR
STARTCHAR fraction
ENCODING 8260
SWIDTH 362 0
DWIDTH 10 0
BBX 10 12 0 0
BITMAP
0000009577
000002C1D1
00000A5860
00003C1C00
0000A49600
0003B2C000
000B395000
004B2C0000
00B3A40000
04A3B00000
0C2B400000
5A3B000000
ENDCHAR
STARTCHAR uni2074
ENCODING 8308
SWIDTH 204 0
DWIDTH 6 0
BBX 5 5 0 6
BITMAP
009900
057600
099870
2B9880
2B9880
ENDCHAR
STARTCHAR Euro
ENCODING 8364
SWIDTH 462 0
DWIDTH 13 0
BBX 12 12 0 0
BITMAP
00005BDDD820
001AA30016C4
00A629DDC72A
017074002840
BDDDDD600000
000000000000
BDDDDD600000
001010000000
01C1B9102B50
006A17CDB51A
0007C40015D4
00004AEDD820
ENDCHAR
STARTCHAR trademark
ENCODING 8482
SWIDTH 461 0
DWIDTH 13 0
BBX 12 5 0 6
BITMAP
9DDDB296134B
00D003A4CC1C
00D003A0621C
00D003A0001C
00D003A0001C
ENDCHAR
STARTCHAR minus
ENCODING 8722
SWIDTH 420 0
DWIDTH 12 0
BBX 10 3 1 4
BITMAP
CDDDDDDDD8
0000000000
CDDDDDDDD8
ENDCHAR
STARTCHAR uni2215
ENCODING 8725
SWIDTH 278 0
DWIDTH 8 0
BBX 8 12 0 0
BITMAP
00003343
0000A3B3
0001D1C0
00058680
000A3B30
001D1C00
00586800
00A3B300
01D1D000
05868000
0A3B3000
1D1D0000
ENDCHAR
STARTCHAR .notdef
ENCODING -1
SWIDTH 500 0
DWIDTH 14 0
BBX 12 33 1 -7
BITMAP
122222222221
9FFFFFFFFFF9
9D44444444D9
9C00000000C9
9C00000000C9
9C00000000C9
9C00000000C9
9C00000000C9
9C00000000C9
9C00000000C9
9C00000000C9
9C00000000C9
9C00000000C9
9C00000000C9
9C00000000C9
9C00000000C9
9C00000000C9
9C00000000C9
9C00000000C9
9C00000000C9
9C00000000C9
9C00000000C9
9C00000000C9
9C00000000C9
9C00000000C9
9C00000000C9
9C00000000C9
9C00000000C9
9C00000000C9
9C00000000C9
9C22222222C9
9FFFFFFFFFF9
244444444442
ENDCHAR
STARTCHAR NULL
ENCODING -1
SWIDTH 600 0
DWIDTH 17 0
BBX 1 1 0 0
BITMAP
00
ENDCHAR
STARTCHAR acutecomb.case
ENCODING -1
SWIDTH 0 0
DWIDTH 0 0
BBX 7 6 1 25
BITMAP
000775A0
001D1C20
00957800
03C1D100
0B496000
5A3C0000
ENDCHAR
STARTCHAR ampersand.case
ENCODING -1
SWIDTH 797 0
DWIDTH 22 0
BBX 21 23 0 0
BITMAP
00000006BDDD9300000000
000002CABDDCAC80000000
00001C6DADDBA9A7000000
000077B5D2097A4D100000
0000C2C58003A578400000
0000C3A490068577500000
0000C1C0D15C2B3A300000
0000D0C26A13B84C000000
0000955A0C5457D2000000
00004C0B42D17910000000
0009A962D16A0000000000
009817D26A0B6000180000
05A1D74C0A62D200A64200
0B2A65B781D35B06A2D250
0D2C2D10B44C0A611C4790
2B4967001D2891D2463C10
1C39580004B0C44C02D200
0D1C1C5002882D19713000
0948729DDB3B45B1D30000
03C1AA300276D2A73C0000
006A15BDDC825B1D388000
0006C610014A7883C1C400
000028CDEDA500C4893D10
ENDCHAR
STARTCHAR asciicircum.case
ENCODING -1
SWIDTH 540 0
DWIDTH 15 0
BBX 15 13 0 11
BITMAP
0000000200000000
0000001C00000000
0000009630000000
000002C1D0000000
00000A4874000000
00004B2D08600000
0000C3A561D10000
000593C095770000
001D2B302D1D1000
00775A0008759000
01D1C20001D1C300
0967800000694B00
3C1D1000000C2B40
ENDCHAR
STARTCHAR asciitilde.case
ENCODING -1
SWIDTH 640 0
DWIDTH 18 0
BBX 16 7 1 9
BITMAP
05BDDC9300000003
8A30015BB51014C7
15BDDC9339CDDA51
8930015BC62014B7
15BDDC9338BDC941
8B40015BB51004A7
3000000039CDDA50
ENDCHAR
STARTCHAR asterisk.case
ENCODING -1
SWIDTH 482 0
DWIDTH 14 0
BBX 11 11 1 12
BITMAP
000094B10000
000094B10000
073094B11530
06AB0005C820
5830000015A0
16A40000A830
000400023000
00792023C100
02C1C3A56900
0129701D2200
000500031000
ENDCHAR
STARTCHAR at.case
ENCODING -1
SWIDTH 915 0
DWIDTH 26 0
BBX 24 23 1 0
BITMAP
000000037BDDDDB730000000
000003BCBCCDDCBAAB400000
00007C9D94100138C8A80000
0009A9B20000000019A6A000
006B890000000000006A6800
02D5C00017CDC9C2C0096A30
096C2004DACDC8C2C000C3B0
1D4A002C7C3017F2C00085B2
598500A4D10000B2C0004976
86B201C5900000B2C0001B48
94C10396700000B2C0000C3A
A3C10395900000B2C0001C3A
94B201C1D10000B2C0003A49
868600A45C3017F2C0008676
494A002C23BDC8939603D1C2
1D0C3003C72003A81ADC35A0
0964C00017CDDA5882017D10
02D18A00000000005BDD8100
006B08B20000000000000000
0008B15C94100138A0000000
00007D4059CDDC9515000000
000003BC72000037D8000000
000000037BDDDDA610000000
ENDCHAR
STARTCHAR backslash.case
ENCODING -1
SWIDTH 504 0
DWIDTH 14 0
BBX 14 27 0 -2
BITMAP
8594A400000000
4A495900000000
0D1D1D00000000
095A4A30000000
04959580000000
00D1D1D0000000
0094A4A3000000
00495868000000
000D1D1C000000
000A4A3B200000
00058686700000
0001D1D1C00000
0000A3B3B20000
00005868670000
00001D1C2C0000
00000B3B2C2000
00000686776000
000001C2C2B000
000000B2C2C100
00000067777600
0000001C2C2B00
0000000B2C1C10
00000007776860
00000002C2B3A0
00000000C2C1D1
00000000768685
000000002B3B3A
ENDCHAR
STARTCHAR bar.case
ENCODING -1
SWIDTH 262 0
DWIDTH 7 0
BBX 5 27 1 -2
BITMAP
94B1D0
94B1D0
94B1D0
94B1D0
94B1D0
94B1D0
94B1D0
94B1D0
94B1D0
94B1D0
94B1D0
94B1D0
94B1D0
94B1D0
94B1D0
94B1D0
94B1D0
94B1D0
94B1D0
94B1D0
94B1D0
94B1D0
94B1D0
94B1D0
94B1D0
94B1D0
94B1D0
ENDCHAR
STARTCHAR braceleft.case
ENCODING -1
SWIDTH 504 0
DWIDTH 14 0
BBX 12 27 1 -2
BITMAP
0003957759DA
000395785000
0003957859DA
000395785000
0003957859DA
000395785000
000395785000
000395785000
000395785000
000395785000
000395785000
8DB395785000
000395785000
8DB395785000
000395785000
8DB395785000
000395785000
000395785000
000395785000
000395785000
000395785000
000395785000
0003957859DA
000395785000
0003957859DA
000395785000
0003957759DA
ENDCHAR
STARTCHAR braceright.case
ENCODING -1
SWIDTH 506 0
DWIDTH 14 0
BBX 12 27 1 -2
BITMAP
7DB2A4765000
0002A4876000
7DB2A4876000
0002A4876000
7DB2A4876000
0002A4876000
0002A4876000
0002A4876000
0002A4876000
0002A4876000
0002A4876000
0002A48768DA
0002A4876000
0002A48768DA
0002A4876000
0002A48768DA
0002A4876000
0002A4876000
0002A4876000
0002A4876000
0002A4876000
0002A4876000
7DB2A4876000
0002A4876000
7DB2A4876000
0002A4876000
7DB2A4765000
ENDCHAR
STARTCHAR bracketleft.case
ENCODING -1
SWIDTH 453 0
DWIDTH 13 0
BBX 11 27 1 -2
BITMAP
83B1C1DDDD40
94B1D0000000
94B1D1DDDD40
94B1D0000000
94B1D1DDDD40
94B1D0000000
94B1D0000000
94B1D0000000
94B1D0000000
94B1D0000000
94B1D0000000
94B1D0000000
94B1D0000000
94B1D0000000
94B1D0000000
94B1D0000000
94B1D0000000
94B1D0000000
94B1D0000000
94B1D0000000
94B1D0000000
94B1D0000000
94B1D1DDDD40
94B1D0000000
94B1D1DDDD40
94B1D0000000
83B1C1DDDD40
ENDCHAR
STARTCHAR bracketright.case
ENCODING -1
SWIDTH 453 0
DWIDTH 13 0
BBX 11 27 1 -2
BITMAP
8DDDA4866840
000004967840
8DDDA4967840
000004967840
8DDDA4967840
000004967840
000004967840
000004967840
000004967840
000004967840
000004967840
000004967840
000004967840
000004967840
000004967840
000004967840
000004967840
000004967840
000004967840
000004967840
000004967840
000004967840
8DDDA4967840
000004967840
8DDDA4967840
000004967840
8DDDA4866840
ENDCHAR
STARTCHAR brokenbar.case
ENCODING -1
SWIDTH 262 0
DWIDTH 7 0
BBX 5 27 1 0
BITMAP
94B1D0
94B1D0
94B1D0
94B1D0
94B1D0
94B1D0
94B1D0
94B1D0
94B1D0
94B1D0
94B1D0
94B1D0
000000
000000
000000
94B1D0
94B1D0
94B1D0
94B1D0
94B1D0
94B1D0
94B1D0
94B1D0
94B1D0
94B1D0
94B1D0
94B1D0
ENDCHAR
STARTCHAR bullet.case
ENCODING -1
SWIDTH 503 0
DWIDTH 14 0
BBX 12 12 1 6
BITMAP
0004ADDB5000
009B3003AA00
07919DD92880
1C1C6115D1C2
677700006867
84B200001C39
84B200001C39
677700006867
1C1C6105D1C2
07919DDA2880
009B3003AA00
0004ADDB5000
ENDCHAR
STARTCHAR uni0327.case
ENCODING -1
SWIDTH 0 0
DWIDTH 0 0
BBX 7 8 1 -7
BITMAP
00010000
003D0000
00B40000
05FCD800
08511A60
00000390
46101A50
18DDC600
ENDCHAR
STARTCHAR cent.case
ENCODING -1
SWIDTH 577 0
DWIDTH 16 0
BBX 14 27 1 -2
BITMAP
0000002A580000
0000002A580000
0000002A580000
0000002A580000
00000000000000
000006BDDDA500
0003D931014AC2
004C239CDC825C
02C18C41017D40
0A56918CDC6240
1D1C1C81029400
58678700000000
7693C100000000
85A2D000000000
7693C100000000
58678700000000
1D1C1C8102A400
0A56918CDC6240
02D17B41016D40
004C239CDC825C
0003D931014AC2
000016BDDDA500
00000000000000
0000002A580000
0000002A580000
0000002A580000
0000002A580000
ENDCHAR
STARTCHAR uni0302.case
ENCODING -1
SWIDTH 0 0
DWIDTH 0 0
BBX 13 6 1 25
BITMAP
0000B56A000000
0006A2D1920000
002D1C425B0000
00C4880C397000
0884C003C1C300
4C1D2000783C10
ENDCHAR
STARTCHAR colon.case
ENCODING -1
SWIDTH 262 0
DWIDTH 7 0
BBX 5 16 1 0
BITMAP
94B1D0
94B1D0
94B1D0
94B1D0
94B1D0
000000
000000
000000
000000
000000
000000
94B1D0
94B1D0
94B1D0
94B1D0
94B1D0
ENDCHAR
STARTCHAR comma.case
ENCODING -1
SWIDTH 338 0
DWIDTH 9 0
BBX 7 8 1 -3
BITMAP
00B2C1D0
00D1C2A0
03958670
07685A30
0B2C1D00
0D1C2B00
3A596700
7685A300
ENDCHAR
STARTCHAR copyright.case
ENCODING -1
SWIDTH 895 0
DWIDTH 25 0
BBX 25 23 0 0
BITMAP
0000000049CDDDC95100000000
0000006DBBCDDDCCBD60000000
00001BAAD7300027CBAB100000
0001C8C70000000006D8D20000
000B7D4000000000003D6C0000
0078B500017BDDA40005B78000
01D5B0003C72003AA000A5D100
077B3002C24BDD9274003B6700
0B3D000946C3005B00000D3C00
0D3B000C1D10000000000A4D00
1C49002A590000000000085B20
2B49002A590000000000085A30
1C3B000C1D10000000000A4B20
0D0D000946C3005B00000D1D00
0B2B3002C24BDD9274003B2C00
0774B0003D72003AA000A56700
01D1B500017CDDA40005B0D100
00781D4000000000003D278000
000C52C70000000006D35C1000
0001D619C7300027C915D20000
00001BA227BDDDB7219C100000
0000006D951000159D60000000
0000000059CDDDC95100000000
ENDCHAR
STARTCHAR currency.case
ENCODING -1
SWIDTH 676 0
DWIDTH 19 0
BBX 17 18 1 1
BITMAP
001700000000071000
011A800000008A1100
04C1A7000008A1C400
945B140000061C5480
2D36518CDC71763D20
03D22D71017C22D200
0020C44BDB35B02000
0003B3C303C2B30000
000678500067850000
000678500067850000
0003B3C303C2B30000
0060C44BDB35B06000
09912D71017C219800
8A1C218CDC713C1A80
81C54600000745C170
0964C2000002D46800
003D200000002D3000
001200000000021000
ENDCHAR
STARTCHAR degree.case
ENCODING -1
SWIDTH 413 0
DWIDTH 12 0
BBX 11 10 0 13
BITMAP
0006CDDA3000
00B92004C500
0882ADC61D20
0D1C501A6670
1B3A0001B3A0
1C3A0001B3A0
0D1C501A6770
0792ADC62D10
00AA2005D400
0006BDD92000
ENDCHAR
STARTCHAR uni0308.case
ENCODING -1
SWIDTH 0 0
DWIDTH 0 0
BBX 14 6 1 25
BITMAP
05CD800019DB30
3C109700A703D1
85001C00D00085
85001C00D00085
3C109700A703D1
05CD800019DC30
ENDCHAR
STARTCHAR divide.case
ENCODING -1
SWIDTH 618 0
DWIDTH 17 0
BBX 15 15 1 4
BITMAP
0000002CD4000000
000000A42D000000
000000A42D000000
0000002CD4000000
0000000000000000
8DDDDDDDDDDDDDC0
0000000000000000
8DDDDDDDDDDDDDC0
0000000000000000
8DDDDDDDDDDDDDC0
0000000000000000
0000002CD4000000
000000A42D000000
000000A42D000000
0000002CD4000000
ENDCHAR
STARTCHAR uni2215.case
ENCODING -1
SWIDTH 483 0
DWIDTH 14 0
BBX 13 23 0 0
BITMAP
00000005968670
0000000A4B3B20
0000000D1D1C00
00000059586800
000000A4A3B300
000000D1D1C000
00000495868000
0000094A4B3000
00000D1D1C0000
00004959580000
000094A4A30000
0000D1D1D00000
00049595800000
00094A4A300000
000D1D1D000000
004A5958000000
009594A3000000
00D1D1D0000000
04A49590000000
09594A40000000
0D1D1D00000000
3A4A5900000000
8595A400000000
ENDCHAR
STARTCHAR dollar.case
ENCODING -1
SWIDTH 660 0
DWIDTH 18 0
BBX 17 27 1 -2
BITMAP
0000002A5800000000
0000002A5800000000
0000582A5857200000
003CA42A5828D80000
05D3382A58561AA000
2C18B42A5828C29700
9589282A58534C1D00
D1D2D52A582C395930
C3A5802A5803833000
D1C2D2165800000000
B2A54CB51100000000
4B1B9138DB61000000
08A16DA5138D810000
005C7149DB616C4000
00017CA5138D62C500
00000038DB619A1D10
00000014039D386760
0000002A5703C2B490
0135602A5800D1C3A0
A2C2D42A5819859580
B2A6392A58672D2A30
4B1B922A5816C45A00
08B2592A585715C100
005D832A5815BA1000
0001692A5858300000
0000002A5800000000
0000002A5800000000
ENDCHAR
STARTCHAR eight.case
ENCODING -1
SWIDTH 561 0
DWIDTH 16 0
BBX 15 23 0 0
BITMAP
000049DDDC720000
0019BBCDDBAD5000
00A8B82004C7B500
05A972ADC71C4D10
0C3C1C4019849760
0D39580000D0C3A0
2B49660000C1D1B0
1B2B3B0001D1C2B0
0D0B47C612568580
0772C727CA331C30
00B617D943AA1400
0029A304AC55C200
06823AB721AA4C00
0C2C2515AA1A6950
1C2B4A0004A2C490
2B49660000C1D1B0
1B39580000D0C2B0
0D1C1D401894A490
0A4962ADC81C3950
04B1B82004B62C00
009916CDDA42C300
0008C510027D4000
000039DDDC710000
ENDCHAR
STARTCHAR ellipsis.case
ENCODING -1
SWIDTH 766 0
DWIDTH 21 0
BBX 20 5 1 0
BITMAP
94B1D0084A2D0075A3C1
94B1D0084A2D0075A3C1
94B1D0084A2D0075A3C1
94B1D0084A2D0075A3C1
94B1D0084A2D0075A3C1
ENDCHAR
STARTCHAR emdash.case
ENCODING -1
SWIDTH 790 0
DWIDTH 22 0
BBX 20 5 1 9
BITMAP
8DDDDDDDDDDDDDDDDDD9
00000000000000000000
8DDDDDDDDDDDDDDDDDD9
00000000000000000000
8DDDDDDDDDDDDDDDDDD9
ENDCHAR
STARTCHAR endash.case
ENCODING -1
SWIDTH 721 0
DWIDTH 20 0
BBX 18 5 1 9
BITMAP
8DDDDDDDDDDDDDDDDA
000000000000000000
8DDDDDDDDDDDDDDDDA
000000000000000000
8DDDDDDDDDDDDDDDDA
ENDCHAR
STARTCHAR equal.case
ENCODING -1
SWIDTH 618 0
DWIDTH 17 0
BBX 15 13 1 5
BITMAP
8DDDDDDDDDDDDDC0
0000000000000000
8DDDDDDDDDDDDDC0
0000000000000000
8DDDDDDDDDDDDDC0
0000000000000000
0000000000000000
0000000000000000
8DDDDDDDDDDDDDC0
0000000000000000
8DDDDDDDDDDDDDC0
0000000000000000
8DDDDDDDDDDDDDC0
ENDCHAR
STARTCHAR Euro.case
ENCODING -1
SWIDTH 767 0
DWIDTH 21 0
BBX 21 23 0 0
BITMAP
0000000016BDDDDB730000
00000018DABCDDCA8BB300
000002C8AB510016B84D50
00002D5C617BDDC716B110
0000B4C43D820026C44100
00068783C2000000160000
000C2C1C30000000000000
0002020200000000000000
9DDDDDDDDDDDDD10000000
0000000000000000000000
0000000000000000000000
9DDDDDDDDDDDDD10000000
9DDDDDDDDDDDDD10000000
0000000000000000000000
000D1C1C10000000000000
0009494780000000000000
0004A2C1B60000003A0000
0000B4791B930028C25100
00003C19915BDDB617A110
000005C16C620016C81B50
0000006C317BDDC822C700
00000003C94000049C4000
0000000005ADDDDA500000
ENDCHAR
STARTCHAR exclam.case
ENCODING -1
SWIDTH 262 0
DWIDTH 7 0
BBX 5 23 1 0
BITMAP
94B1D0
94B1D0
94B1D0
94B1D0
94B1D0
94B1D0
94B1D0
94B1D0
94B1D0
94B1D0
94B1D0
94B1D0
94B1D0
94B1D0
94B1D0
94B1D0
425160
000000
94B1D0
94B1D0
94B1D0
94B1D0
94B1D0
ENDCHAR
STARTCHAR exclamdown.case
ENCODING -1
SWIDTH 262 0
DWIDTH 7 0
BBX 5 23 1 -6
BITMAP
93B1D0
93B1D0
93B1D0
93B1D0
93B1D0
000000
425160
93B1D0
93B1D0
93B1D0
93B1D0
93B1D0
93B1D0
93B1D0
93B1D0
93B1D0
93B1D0
93B1D0
93B1D0
93B1D0
93B1D0
93B1D0
93B1D0
ENDCHAR
STARTCHAR five.case
ENCODING -1
SWIDTH 558 0
DWIDTH 16 0
BBX 15 23 0 0
BITMAP
07DDDDDDDDDDDD20
07DDDDDDDDDDDD20
0000000000000000
07DDDDDDDDDDDD20
0000000000000000
085A3C0000000000
085A3C0000000000
085A3C0000000000
085A3C0DDB600000
085A3C00039C2000
085A3C000003D200
085A3C0CDB504B00
085A3C0DCAB80A30
085A3C01198A4580
0000000000D3B3A0
0111110000C1C1B0
1B49570000D0C2A0
0D1C1D401983A580
0A3962ADC70B4A30
04B1C82003B74C00
009916CDDA43D200
0008C510027D3000
000039DDDC710000
ENDCHAR
STARTCHAR four.case
ENCODING -1
SWIDTH 585 0
DWIDTH 16 0
BBX 16 23 0 0
BITMAP
0000000B3A495000
0000003B2B2C0000
000000A3A4950000
000003B2C2C00000
00000A4A49500000
00003B2C2C000000
0000A49595000000
0002B2C2C0000000
000A495850000000
002C2C1C00000000
00A4958600000000
02C2C1C094B2D000
0958586094B2D000
0000000094B2D000
2DDDDDD594B2D0D7
0000000094B2D000
2DDDDDD594B2D0D7
0000000094B2D000
2DDDDDD594B2D0D7
0000000094B2D000
0000000094B2D000
0000000094B2D000
0000000094B2D000
ENDCHAR
STARTCHAR uni2074.case
ENCODING -1
SWIDTH 312 0
DWIDTH 9 0
BBX 8 10 0 13
BITMAP
000A5950
002C2C00
00A59500
02C2C000
0A495000
00000C1C
2DDD3C1C
00000C1C
2DDD3C1C
00000C1C
ENDCHAR
STARTCHAR fraction.case
ENCODING -1
SWIDTH 655 0
DWIDTH 18 0
BBX 16 23 1 0
BITMAP
000000000000694A
000000000000D1C2
0000000000077690
00000000001D1D10
0000000000867700
0000000002C1D100
000000000A586000
000000003B2C0000
00000000B3950000
00000004A3C00000
0000000C2B400000
000000594A000000
000000C2C2000000
0000078590000000
00001D1C20000000
0000866800000000
0002C1D100000000
0009587000000000
002C2C0000000000
00A4950000000000
04B2C00000000000
0C3A400000000000
593B000000000000
ENDCHAR
STARTCHAR gravecomb.case
ENCODING -1
SWIDTH 0 0
DWIDTH 0 0
BBX 7 6 1 25
BITMAP
5A3C0000
0B396000
03C1D100
00957800
002D1D20
000875A0
ENDCHAR
STARTCHAR greater.case
ENCODING -1
SWIDTH 677 0
DWIDTH 19 0
BBX 17 20 1 2
BITMAP
200000000000000000
B91000000000000000
15C700000000000000
B718C4000000000000
17C52AA20000000000
B52AB34C8100000000
2AB33C916D60000000
003C916D619C300000
00006D718C43BA2000
0000018C42BA25D700
00000012AB24C81750
000007D304C8177000
0005C817C106900000
03BA25C718B0000000
8C43BA25D700000000
519C43BA2000000000
6D619C300000000000
717D60000000000000
4C8100000000000000
920000000000000000
ENDCHAR
STARTCHAR guillemotleft.case
ENCODING -1
SWIDTH 666 0
DWIDTH 19 0
BBX 17 16 1 3
BITMAP
000000400000000220
000008C00000006C20
0002C81000001AA110
005D43C00004C62B30
06A17C20004C25D400
520B819104308A1740
4D513C6002C711B800
32B912000319B23000
6C26C30004C44D5000
14C63C70012C82B900
881AA19005A18C2730
08C26C40006D44C500
003C62C00002C81A30
0001AA10000008C200
000005D00000004C20
000000200000000110
ENDCHAR
STARTCHAR guillemotright.case
ENCODING -1
SWIDTH 666 0
DWIDTH 19 0
BBX 17 16 1 3
BITMAP
300000000310000000
5C20000003D4000000
13C60000012B800000
8819A10005A18C2000
07C25C10006D44C200
743D40610662C60530
2C811B9001AA119B10
0034D53100033C7220
008B27C00007C35D20
2C72B81001B919A110
635D43C10553C62C30
19B17C20007C26D400
762B80000581AA1000
05D40000003C600000
6A10000004C2000000
200000000200000000
ENDCHAR
STARTCHAR guilsinglleft.case
ENCODING -1
SWIDTH 338 0
DWIDTH 9 0
BBX 8 16 1 3
BITMAP
00000040
000008C0
0002C810
005D43C0
06A17C20
520B8191
4D513C60
32B91200
6C26C300
14C63C70
881AA190
08C26C40
003C62C0
0001AA10
000005D0
00000020
ENDCHAR
STARTCHAR guilsinglright.case
ENCODING -1
SWIDTH 338 0
DWIDTH 9 0
BBX 8 16 1 3
BITMAP
30000000
5C200000
13C60000
8819A100
07C25C10
743D4061
2C811B90
0034D531
008B27C0
2C72B810
635D43C1
19B17C20
762B8000
05D40000
6A100000
20000000
ENDCHAR
STARTCHAR hyphen.case
ENCODING -1
SWIDTH 445 0
DWIDTH 12 0
BBX 11 5 1 9
BITMAP
8DDDDDDDDD10
000000000000
8DDDDDDDDD10
000000000000
8DDDDDDDDD10
ENDCHAR
STARTCHAR less.case
ENCODING -1
SWIDTH 677 0
DWIDTH 19 0
BBX 17 20 1 1
BITMAP
000000000000000290
000000000000018C40
0000000000006D6170
00000000004C916D50
000000002AB34C8150
00000018D52AB24C70
000001B718C42AB200
0000A602C718C40000
008619C303D7000000
6719C43BA210000000
18C43BA25C71000000
002AB25C817D500000
00004C817D52AB3000
0000006D629B33C910
000000019C43B916B0
0000000003BA25C710
000000000005C718B0
00000000000007C510
0000000000000019A0
000000000000000020
ENDCHAR
STARTCHAR logicalnot.case
ENCODING -1
SWIDTH 618 0
DWIDTH 17 0
BBX 15 11 1 3
BITMAP
8DDDDDDDDDDDDDC0
0000000000000000
8DDDDDDDDDDDDDC0
0000000000000000
8DDDDDDDDDDDDDC0
0000000000000000
000000000093C1D0
000000000093C1D0
000000000093C1D0
000000000093C1D0
000000000093C1D0
ENDCHAR
STARTCHAR uni00B5.case
ENCODING -1
SWIDTH 792 0
DWIDTH 22 0
BBX 21 29 1 -6
BITMAP
94B1D00000004876940000
94B1D00000004876940000
94B1D00000004876940000
94B1D00000004876940000
94B1D00000004876940000
94B1D00000004876940000
94B1D00000004876940000
94B1D00000004876940000
94B1D00000004876940000
94B1D00000004876940000
94B1D00000004876940000
94B1D00000004876940000
94B1D00000004876940000
94B1D00000004876940000
94B1D00000005876940000
94B1D00000008694A30000
94B1D0000001D1C1C10000
94B1D192003B64A3B3A200
94B1D05BDDA43D29525C70
94B1D1720028D35B1C6100
94B1D07CDDB616C2618C70
94B1D0500014AB11BA3000
94B1D0ADDDDA400005AD70
94B1D00000000000000000
94B1D00000000000000000
94B1D00000000000000000
94B1D00000000000000000
94B1D00000000000000000
93B1C00000000000000000
ENDCHAR
STARTCHAR minus.case
ENCODING -1
SWIDTH 618 0
DWIDTH 17 0
BBX 15 5 1 9
BITMAP
8DDDDDDDDDDDDDC0
0000000000000000
8DDDDDDDDDDDDDC0
0000000000000000
8DDDDDDDDDDDDDC0
ENDCHAR
STARTCHAR multiply.case
ENCODING -1
SWIDTH 580 0
DWIDTH 16 0
BBX 15 14 1 4
BITMAP
0006500000760000
0032D50007B17000
00A82D407B1C5200
490A8237B1C54C10
0990927B1C54C200
009807B1C54C2000
00027B1C54C20000
0007B1C54C230000
007B1C54C21D5000
07B1C54C2682D500
4B1C54C250A82A00
01C54C20990A7000
0034C20009901000
0007200000810000
ENDCHAR
STARTCHAR nine.case
ENCODING -1
SWIDTH 558 0
DWIDTH 16 0
BBX 15 23 0 0
BITMAP
000039CDDC710000
0007C510017D5000
007A17CDDA32C400
03C1C82004C62D00
094A52ADC71C3850
0D2C0C501984A490
1C49580000D0C2B0
2B49660000B1D1C0
1C2C580000B1D1C0
0D0A5C4011B1D1C0
0951C8BDD3B1D1C0
02C118CDD3B1D1C0
007A100000B1D1C0
0006D61001B1D1C0
000028CDE3B1D1C0
0000000000B1D1C0
0000000000B1D2B0
1B49670000D0C490
0D2C1D301984A850
086A53BDC71C5D00
01C5C82004C8C400
002BAACDDBAD4000
00005ADDDC710000
ENDCHAR
STARTCHAR numbersign.case
ENCODING -1
SWIDTH 776 0
DWIDTH 22 0
BBX 20 23 1 0
BITMAP
00000C2B48000B1D1C00
00002B4876000D1C3A00
0000487694001C3A5700
00007694B1003A587500
06D494B1D1DDDDDDDDD4
0000B1D1C00000000000
06D0D1C3A5DDDDDDDDD4
0001C395700000000000
06A3957859DDDDDDDDD4
0006785A300010000000
00085A2C000587693000
000000010007694B1000
8DDDDDDDDD594B1C1D20
00000000000B2D1C0000
8DDDDDDDDD2D1C3A5D20
00000000000C2A580000
8DDDDDDDDB2A58768D20
00000000004876940000
00A3C1D0006694B20000
00C1C1C00084B2D00000
00D1C3A000B2D0C00000
01C3A57000C0C2A00000
03A5875000C2B4800000
ENDCHAR
STARTCHAR one.case
ENCODING -1
SWIDTH 378 0
DWIDTH 11 0
BBX 10 23 0 0
BITMAP
7DD85785A3
7DD85785A3
00005785A3
7DD85785A3
00005785A3
00005785A3
00005785A3
00005785A3
00005785A3
00005785A3
00005785A3
00005785A3
00005785A3
00005785A3
00005785A3
00005785A3
00005785A3
00005785A3
00005785A3
00005785A3
00005785A3
00005785A3
00005785A3
ENDCHAR
STARTCHAR onehalf.case
ENCODING -1
SWIDTH 735 0
DWIDTH 21 0
BBX 19 24 1 -1
BITMAP
8D685A30000004A3C000
00085A3000000C2B4000
8D685A300000594B0000
00085A300000C2C30000
00085A30000685900000
00085A30001D1C200000
00085A30008768000000
00085A3001C1D1000000
00085A30095870000000
00085A302C1C00000000
00032410A49500000000
00000003B2C000000000
0000000B3A4000000000
0000005A3B001ADD8100
000000C2B300B5007900
00000685A003A3DC1C10
00001D1C200354494A20
000077680000004D1D10
0001D1D1000004D29800
0009677000004D28B000
002C1D10000031030000
00A486000007DDDDDD00
03B2C000000000000000
000000000007DDDDDD00
ENDCHAR
STARTCHAR onequarter.case
ENCODING -1
SWIDTH 722 0
DWIDTH 20 0
BBX 18 23 1 0
BITMAP
8D685A30000004A3C0
00085A3000000C2B40
8D685A300000594B00
00085A300000C2C300
00085A300006859000
00085A30001D1C2000
00085A300087680000
00085A3001C1D10000
00085A300958700000
00085A302C1C000000
00032410A495000000
00000003B2C0000000
0000000B3A40000000
0000005A3B000B3A40
000000C2B3003B2B00
00000685A000B3A400
00001D1C2003B3B000
00007768000B3A4000
0001D1D10000000D0C
00096770003DDD2D0C
002C1D100000000D0C
00A48600003DDD2D0C
03B2C0000000000D0C
ENDCHAR
STARTCHAR uni00B9.case
ENCODING -1
SWIDTH 306 0
DWIDTH 9 0
BBX 7 11 1 12
BITMAP
8D685A30
00085A30
8D685A30
00085A30
00085A30
00085A30
00085A30
00085A30
00085A30
00085A30
00032410
ENDCHAR
STARTCHAR ordfeminine.case
ENCODING -1
SWIDTH 456 0
DWIDTH 13 0
BBX 11 11 1 12
BITMAP
0002B3E00000
000868B40000
000C1C390000
003B4F3B0000
008596875000
00D190B2A000
03A4EDE3B100
095910487500
0D1DDDDC2A00
4A5600093B10
434100033420
ENDCHAR
STARTCHAR ordmasculine.case
ENCODING -1
SWIDTH 489 0
DWIDTH 14 0
BBX 12 11 1 12
BITMAP
0007CDDB4000
01C81003B800
0B52ADC81A60
3A2C4017B1D0
7593000084A3
84B000005694
7693000084A2
3B2C4016B1C0
0A62ADC81B50
01B92004C800
0006BDDA4000
ENDCHAR
STARTCHAR paragraph.case
ENCODING -1
SWIDTH 893 0
DWIDTH 25 0
BBX 24 23 0 0
BITMAP
00006BDDDDDDDDDDDDDDDDD8
002CABDDDDDDDDDDDDDDDDD8
01C6D5100000000000000000
096C35CDDDDDDDDDDDDDDDD8
1D493C200000000000000000
3A6685000000085A2C002B48
496685000000085A2C002B48
3A493C200000085A2C002B48
0D0C25CDDDDD685A2C002B48
0963D5100000085A2C002B48
01C429DDDDDD685A2C002B48
002C93000000085A2C002B48
00005ADDDDDD685A2C002B48
000000000000085A2C002B48
000000000000085A2C002B48
000000000000085A2C002B48
000000000000085A2C002B48
000000000000085A2C002B48
000000000000085A2C002B48
000000000000085A2C002B48
000000000000085A2C002B48
000000000000085A2C002B48
000000000000085A2C002B48
ENDCHAR
STARTCHAR parenleft.case
ENCODING -1
SWIDTH 290 0
DWIDTH 8 0
BBX 9 27 0 -2
BITMAP
0001D4B690
00077A4C20
000D2C3A00
0059769400
0094C2D000
00D2C3A000
03A6785000
07694B2000
093C1D0000
0C1D2B0000
0D2B490000
0C3A580000
1B49670000
2B48760000
1B49670000
0C3A580000
0D2B490000
0C1D2B0000
093C1D0000
07694B2000
03A5785000
00D1C3A000
0094C2D000
0059779400
000D2C3A00
00077A4C20
0001D4B690
ENDCHAR
STARTCHAR parenright.case
ENCODING -1
SWIDTH 290 0
DWIDTH 8 0
BBX 9 27 -1 -2
BITMAP
7795C30000
1D3B590000
095B3D1000
02B5976000
00C2D2B000
0085A3C100
003A678500
000D2B5900
000C1D2B00
00094C1D00
0007694C10
0006785B20
0005876930
0004966940
0005876930
0006785B20
0007694C10
00094C1D00
000C1D2B00
000D2B5900
003A678500
0085A3C100
00C2D2B000
02B5977000
095B3C1000
1D3B590000
7795C30000
ENDCHAR
STARTCHAR percent.case
ENCODING -1
SWIDTH 827 0
DWIDTH 23 0
BBX 23 23 0 0
BITMAP
0017CDDA400000004B2D1C20
01C9BDC9C7000000C2A58700
0A6C501A6C30000784B3C000
0D3A0001B590002D1C2C3000
2B3A0001B3A000B487790000
0D1C501A658005A2C2D10000
0972ADC61C301D2B4B400000
01C82004C600975A5A000000
0007CDDA3003C1D3D1000000
00000000000C396A50000000
0000000000693C5B00000000
0000000781D1C30000000000
0000002D1A57900000000000
000000A54B2D1018CDC60000
000004B0C2A503D61028C100
00000C2784B00C35CDA26900
0000782C1D20594C204C1C10
0001D1B48700859400085940
000A65A2C000859400085940
003C1D2B4000594C204C1C10
00C3966A00000D25CDA26A00
0693C1D1000003D50017C100
1D1C396000000029DDD81000
ENDCHAR
STARTCHAR period.case
ENCODING -1
SWIDTH 262 0
DWIDTH 7 0
BBX 5 5 1 0
BITMAP
94B1D0
94B1D0
94B1D0
94B1D0
94B1D0
ENDCHAR
STARTCHAR periodcentered.case
ENCODING -1
SWIDTH 262 0
DWIDTH 7 0
BBX 5 5 1 9
BITMAP
94B1D0
94B1D0
94B1D0
94B1D0
94B1D0
ENDCHAR
STARTCHAR plus.case
ENCODING -1
SWIDTH 616 0
DWIDTH 17 0
BBX 15 16 1 4
BITMAP
0000010102000000
00000A3C1D000000
00000A3C1D000000
00000A3C1D000000
00000A3C1D000000
00000A3C1D000000
8DDD5A3C1D1DDDB0
00000A3C1D000000
8DDD5A3C1D1DDDB0
00000A3C1D000000
8DDD5A3C1D1DDDB0
00000A3C1D000000
00000A3C1D000000
00000A3C1D000000
00000A3C1D000000
0000083A1B000000
ENDCHAR
STARTCHAR plusminus.case
ENCODING -1
SWIDTH 618 0
DWIDTH 17 0
BBX 15 22 1 0
BITMAP
0000010102000000
00000A3C1D000000
00000A3C1D000000
00000A3C1D000000
00000A3C1D000000
00000A3C1D000000
8DDD5A3C1D1DDDB0
00000A3C1D000000
8DDD5A3C1D1DDDB0
00000A3C1D000000
8DDD5A3C1D1DDDB0
00000A3C1D000000
00000A3C1D000000
00000A3C1D000000
00000A3C1D000000
0000083A1B000000
0000000000000000
8DDDDDDDDDDDDDC0
0000000000000000
8DDDDDDDDDDDDDC0
0000000000000000
8DDDDDDDDDDDDDC0
ENDCHAR
STARTCHAR question.case
ENCODING -1
SWIDTH 598 0
DWIDTH 17 0
BBX 15 23 1 0
BITMAP
00017CDDDA500000
004D9BCDCBBB1000
03C6C51017C7C000
0C3D26CDB34B8800
49675B203D2B3D00
75A3B20006766A30
4251500003967840
0000000008585940
00000000791D1B20
0000000A82C43B00
000000A63D41C200
000004A2D23C4000
00000A3A45C20000
00000D0D1D100000
00000D1B39000000
00000D2B49000000
0000051524000000
0000000000000000
00000D1C49000000
00000D1C49000000
00000D1C49000000
00000D1C49000000
00000D1C49000000
ENDCHAR
STARTCHAR questiondown.case
ENCODING -1
SWIDTH 598 0
DWIDTH 17 0
BBX 15 23 1 -6
BITMAP
00000D0C3A000000
00000D0C3A000000
00000D0C3A000000
00000D0C3A000000
00000D0C3A000000
0000000000000000
0000050514000000
00000C0D2B000000
00000C0C2A000000
00003B2B49000000
0005C28676000000
007B15C1D1000000
05A07C1A60000000
1C17A1B700000000
583B1B5000000000
8594950000000000
84B2C00001423320
76A3B20005876930
3B775B203C2B3C10
0B5D16CDB34B5900
02D7C50017C6D100
003DABDDCAAC2000
00016BDDDB500000
ENDCHAR
STARTCHAR quotedbl.case
ENCODING -1
SWIDTH 464 0
DWIDTH 13 0
BBX 13 8 0 15
BITMAP
48769404967840
48769404967840
48769404967840
48769404967840
48769404967840
48769404967840
48769404967840
48769404967840
ENDCHAR
STARTCHAR quotedblbase.case
ENCODING -1
SWIDTH 464 0
DWIDTH 13 0
BBX 13 8 0 -3
BITMAP
48769404967840
48769404967840
48769404967840
48769404967840
48769404967840
00769400067840
00769400067840
00769400067840
ENDCHAR
STARTCHAR quotedblleft.case
ENCODING -1
SWIDTH 464 0
DWIDTH 13 0
BBX 13 8 0 15
BITMAP
48760004967000
48760004967000
48760004967000
48769404967840
48769404967840
48769404967840
48769404967840
48769404967840
ENDCHAR
STARTCHAR quotedblright.case
ENCODING -1
SWIDTH 464 0
DWIDTH 13 0
BBX 13 8 0 15
BITMAP
48769404967840
48769404967840
48769404967840
48769404967840
48769404967840
00769400067840
00769400067840
00769400067840
ENDCHAR
STARTCHAR quoteleft.case
ENCODING -1
SWIDTH 212 0
DWIDTH 6 0
BBX 6 8 0 15
BITMAP
487600
487600
487600
487694
487694
487694
487694
487694
ENDCHAR
STARTCHAR quoteright.case
ENCODING -1
SWIDTH 212 0
DWIDTH 6 0
BBX 6 8 0 15
BITMAP
487694
487694
487694
487694
487694
007694
007694
007694
ENDCHAR
STARTCHAR quotesinglbase.case
ENCODING -1
SWIDTH 212 0
DWIDTH 6 0
BBX 6 8 0 -3
BITMAP
487694
487694
487694
487694
487694
007694
007694
007694
ENDCHAR
STARTCHAR quotesingle.case
ENCODING -1
SWIDTH 212 0
DWIDTH 6 0
BBX 6 8 0 15
BITMAP
487694
487694
487694
487694
487694
487694
487694
487694
ENDCHAR
STARTCHAR registered.case
ENCODING -1
SWIDTH 895 0
DWIDTH 25 0
BBX 25 23 0 0
BITMAP
0000000049CDDDC95100000000
0000006DBBCDDDCCBD60000000
00001BAAD7300027CBAB100000
0001C8C70000000006D8D20000
000B7D4000000000003D6C0000
0078B500C0EDDDDB3005B78000
01D5B000D0D00003C200A5D100
077B3000D0FDDDD658003B6700
0B3D0000D0D0002C2A000D3C00
0D3B0000D0FDDDD658000A4D00
1C490000D0D00004C200085B20
2B490000D0FDEEDC2000085A30
1C3B0000D0D01D1C00000A4B20
0D0D0000D0D0095940000D1D00
0B2B3000D0D003B3B0003B2C00
0774B000D0D000C2C200A56700
01D1B500707000434305B0D100
00781D4000000000003D278000
000C52C70000000006D35C1000
0001D619C7300027C915D20000
00001BA227BDDDB7219C100000
0000006D951000159D60000000
0000000059CDDDC95100000000
ENDCHAR
STARTCHAR uni030A.case
ENCODING -1
SWIDTH 0 0
DWIDTH 0 0
BBX 7 6 1 25
BITMAP
04CDA200
3D205C00
86000A20
86000A20
3C205C00
04CDA200
ENDCHAR
STARTCHAR section.case
ENCODING -1
SWIDTH 645 0
DWIDTH 18 0
BBX 17 30 1 -4
BITMAP
000027BDDDB7100000
0007C6200027C70000
008A1000000008A000
02C017CEDDC8308700
0852DABDDDA7A90C10
0A2A5C40004D473310
0A2D0D300001100000
085C23CB7300000000
03C6B1037BD8100000
008A6D830017D40000
0007D669CB612C3000
003229DB746C43C000
03C262036BB2D2A300
0C2A72A60078677600
3A4A3C20002B496700
587694000096678500
487778004B72C2C100
2C2D1BB62019287000
0B47B238CC82160000
02D35DB6215BA10000
003D8138BD925C2000
00017DB7316D64B000
00000037BD71D3B200
000000000198677500
0243C4000079587600
D1D33ADDDD81B3A300
783C9410015C82D000
0A915ACDDC932C4000
007D73100149D40000
00016ADDDDA6100000
ENDCHAR
STARTCHAR semicolon.case
ENCODING -1
SWIDTH 338 0
DWIDTH 9 0
BBX 7 19 1 -3
BITMAP
0085A3C0
0085A3C0
0085A3C0
0085A3C0
0085A3C0
00000000
00000000
00000000
00000000
00000000
00000000
00B2C1D0
00D1C2A0
03958670
07685A30
0B2C1D00
0D1C2B00
3A596700
7685A300
ENDCHAR
STARTCHAR seven.case
ENCODING -1
SWIDTH 505 0
DWIDTH 14 0
BBX 14 23 0 0
BITMAP
2DDDDDDDDDDDD1
2DDDDDDDDDDDD1
00000000000000
2DDDDDDDDDDDD1
00000000000000
00000001C2B490
00000005867850
000000094A3C10
0000000D1D1C00
0000002B3A5800
00000067769400
000000A3B2C100
000000D1C2B000
000003A4967000
000007685A3000
00000B2C1D0000
00000D1C3A0000
00004958760000
00008594B20000
0000C1D1D00000
0001C2B4900000
00058678500000
00094A3C100000
ENDCHAR
STARTCHAR six.case
ENCODING -1
SWIDTH 558 0
DWIDTH 16 0
BBX 15 23 0 0
BITMAP
000039DDDC820000
0009CBCDDB9C8000
0098B82003B89800
05A972ADC81B4C20
0B3C1C4018A3A580
0D39580000C0C2B0
2B58760000000000
2A58760000000000
2A58768DDB600000
2A587610039C2000
2A5876000003D200
2A58767DDB504B00
2A58767DCAB80A30
2A587620198A4580
2A58760000D3B3A0
2A58760000C1C1B0
2B39580000D0C2A0
0D1C1C401983A580
0B3962ADC70B4A30
05A1B82003B74C00
00A806CDDA43D200
0009B500027D3000
000039DDDC710000
ENDCHAR
STARTCHAR slash.case
ENCODING -1
SWIDTH 504 0
DWIDTH 14 0
BBX 14 27 0 -2
BITMAP
000000002B3B3A
00000000768685
00000000C2C1D1
00000002C2B3A0
00000007776860
0000000B2C1C10
0000001C2C2B00
00000067777600
000000B2C2C100
000001C2C2B000
00000686776000
00000B3B2C2000
00001D1C2C0000
00005868670000
0000A3B3B20000
0001D1D1C00000
00059686700000
000A4A3B200000
000D1D1C000000
00495868000000
0094A4A3000000
00D1D1D0000000
04959580000000
095A4A30000000
0D1D1D00000000
4A495900000000
8595A400000000
ENDCHAR
STARTCHAR uni00AD.case
ENCODING -1
SWIDTH 445 0
DWIDTH 12 0
BBX 11 5 1 9
BITMAP
8DDDDDDDDD10
000000000000
8DDDDDDDDD10
000000000000
8DDDDDDDDD10
ENDCHAR
STARTCHAR sterling.case
ENCODING -1
SWIDTH 618 0
DWIDTH 17 0
BBX 17 23 0 0
BITMAP
000016BDDDC9400000
0006DABCDDBAAB2000
007B8C510039C5D300
02C5B17CDC924C3C00
085B2A81004C386940
0B2D0C000003B36110
0A3C1C000000200000
068686800000000000
000000000000000000
6DDDDDDDDDDD600000
000000000000000000
6DDDDDDDDDDD600000
000000000000000000
6DDDDDDDDDDD600000
000202020000000000
009668770000000000
0884B3B00000000000
000000000000000000
9DDDDDDDDDDDDDDD60
000000000000000000
9DDDDDDDDDDDDDDD60
000000000000000000
9DDDDDDDDDDDDDDD60
ENDCHAR
STARTCHAR three.case
ENCODING -1
SWIDTH 558 0
DWIDTH 16 0
BBX 15 23 0 0
BITMAP
00005ADDDC820000
002BAACDDBAC7000
01C5C82003B9A700
086A63ADC81B5C20
0D2C1D4018A2B680
1B49670000D0D2A0
0000000000C1C2B0
000000000163A490
00000002DB611A40
00000000039C2400
000000000003D200
00000002DB504B00
00000002CAB80A30
00000000198A4580
0000000000D3B3A0
1624330000C1C1B0
1C3A580000D0C2A0
0D1D1C501983A580
095882ADC70B4A30
03C1B92003B74C00
007A16BDDA43D200
0007C510027D3000
000039DDDC710000
ENDCHAR
STARTCHAR threequarters.case
ENCODING -1
SWIDTH 722 0
DWIDTH 20 0
BBX 18 23 1 0
BITMAP
03CDD600000004A3C0
2C201A6000000C2B40
766B91C00000594B00
203160B00000C2C300
0005C6100006859000
00002C50001D1C2000
000592B00087680000
4252D0C001C1D10000
675D92B00958700000
1D402C402C1C000000
02ADC500A495000000
00000003B2C0000000
0000000B3A40000000
0000005A3B000B3A40
000000C2B3003B2B00
00000685A000B3A400
00001D1C2003B3B000
00007768000B3A4000
0001D1D10000000D0C
00096770003DDD2D0C
002C1D100000000D0C
00A48600003DDD2D0C
03B2C0000000000D0C
ENDCHAR
STARTCHAR uni00B3.case
ENCODING -1
SWIDTH 332 0
DWIDTH 9 0
BBX 7 11 1 12
BITMAP
03CDD600
2C201A60
766B91C0
203160B0
0005C610
00002C50
000592B0
4252D0C0
675D92B0
1D402C40
02ADC500
ENDCHAR
STARTCHAR tildecomb.case
ENCODING -1
SWIDTH 0 0
DWIDTH 0 0
BBX 11 4 1 25
BITMAP
03BD910000A0
1D306B1001D0
670006B11A70
6300005DD800
ENDCHAR
STARTCHAR trademark.case
ENCODING -1
SWIDTH 850 0
DWIDTH 24 0
BBX 23 12 0 11
BITMAP
9DDDDDDDD62B4D100006C3A0
00000000002B4EA0003DC3A0
9DDEEEDDD62B49A601C4C3A0
00076930002B4C1D3974C3A0
00076930002B4E83DB1DC3A0
00076930002B49C47AB5C3A0
00076930002B492D2A90C3A0
00076930002B4904C110C3A0
00076930002B49007200C3A0
00076930002B49000000C3A0
00076930002B49000000C3A0
00076930002B49000000C3A0
ENDCHAR
STARTCHAR two.case
ENCODING -1
SWIDTH 558 0
DWIDTH 16 0
BBX 15 23 0 0
BITMAP
00004ADDDC710000
001ABACDDBAD5000
00B6B92004C8C400
078872ADC71C5D00
0C2D1C4019849850
1C39580000D0C390
1423330000C1D2B0
0000000001D1C2B0
000000000A677590
000000008A2D1B40
00000006B2D35B00
0000005C1C52D200
000003D2A72D4000
00002D2991C50000
0001D37A1C600000
001C55B1B6000000
00B64C1B70000000
0000000000000000
07DDDDDDDDDDDD20
0000000000000000
07DDDDDDDDDDDD20
0000000000000000
07DDDDDDDDDDDD20
ENDCHAR
STARTCHAR uni00B2.case
ENCODING -1
SWIDTH 339 0
DWIDTH 9 0
BBX 8 11 1 12
BITMAP
02BDD700
0C400880
484DB1D0
4453A3C1
0005C1D0
005C2A70
05C29900
03113000
8DDDDDC0
00000000
8DDDDDC0
ENDCHAR
STARTCHAR underscore.case
ENCODING -1
SWIDTH 667 0
DWIDTH 19 0
BBX 17 5 1 0
BITMAP
8DDDDDDDDDDDDDDD40
000000000000000000
8DDDDDDDDDDDDDDD40
000000000000000000
8DDDDDDDDDDDDDDD40
ENDCHAR
STARTCHAR yen.case
ENCODING -1
SWIDTH 769 0
DWIDTH 22 0
BBX 22 23 0 0
BITMAP
5A3C1D200000000884B2C1
0B4874B00000003C1D2B40
02C1C3A5000000C3966A00
00693C1D10000784C2D100
000C3975A0002D1C2A5000
0002C1C2B500C4875A0000
0000784B2D1693C1D20000
00000C3966931C39600000
000003C1D1C4584B000000
000000875A2D11D2000000
0000001C2A578370000000
00000004B1C1C300000000
0000000000000000000000
000000007593B100000000
0000ADD775A3C1CDD40000
0000000075A3C100000000
0000ADD775A3C1CDD40000
0000000075A3C100000000
0000ADD775A3C1CDD40000
0000000075A3C100000000
0000000075A3C100000000
0000000075A3C100000000
0000000075A3C100000000
ENDCHAR
STARTCHAR zero.case
ENCODING -1
SWIDTH 558 0
DWIDTH 16 0
BBX 15 23 0 0
BITMAP
000039DDDC710000
0009CBCDDBAD5000
0098B82004C8C400
05A972ADC71C5D00
0B3C1C401984A850
0D39580000D0C490
2B58760000B1D2B0
2A58760000B1D1C0
2A58760000B1D1C0
2A58760000B1D1C0
2A58760000B1D1C0
2A58760000B1D1C0
2A58760000B1D1C0
2A58760000B1D1C0
2A58760000B1D1C0
2A58760000B1D1C0
2B39580000D0C2B0
0D1C1C401984A490
0B3962ADC71C3850
05A1B82004B62D00
00A806CDDA42C400
0009B500017D5000
000039DDDC710000
ENDCHAR
ENDFONT
